<svg width="20" height="20" viewBox="0 0 20 20" fill="none" xmlns="http://www.w3.org/2000/svg">
<path d="M8.83268 3.45841C8.83268 3.61675 8.69935 3.75008 8.54102 3.75008H7.59935C5.79935 3.75008 4.33268 5.21675 4.33268 7.01675V14.7084C4.33268 14.8667 4.19935 15.0001 4.04102 15.0001H3.45768C2.46602 15.0001 1.66602 14.2001 1.66602 13.2084V3.45841C1.66602 2.46675 2.46602 1.66675 3.45768 1.66675H7.04102C8.03268 1.66675 8.83268 2.46675 8.83268 3.45841Z" fill="#2F3454"/>
<path d="M18.3327 3.45841V13.2084C18.3327 14.2001 17.5327 15.0001 16.541 15.0001H16.016C15.8577 15.0001 15.7243 14.8667 15.7243 14.7084V7.01675C15.7243 5.21675 14.2577 3.75008 12.4577 3.75008H11.4577C11.2993 3.75008 11.166 3.61675 11.166 3.45841C11.166 2.46675 11.966 1.66675 12.9577 1.66675H16.541C17.5327 1.66675 18.3327 2.46675 18.3327 3.45841Z" fill="#2F3454"/>
<path d="M12.459 5H7.60065C6.48398 5 5.58398 5.9 5.58398 7.01667V16.3167C5.58398 17.4333 6.48398 18.3333 7.60065 18.3333H8.95898C9.19232 18.3333 9.37565 18.15 9.37565 17.9167V15.8333C9.37565 15.4917 9.65898 15.2083 10.0007 15.2083C10.3423 15.2083 10.6257 15.4917 10.6257 15.8333V17.9167C10.6257 18.15 10.809 18.3333 11.0423 18.3333H12.4673C13.5757 18.3333 14.4757 17.4333 14.4757 16.325V7.01667C14.4757 5.9 13.5757 5 12.459 5ZM11.6673 12.2917H8.33398C7.99232 12.2917 7.70898 12.0083 7.70898 11.6667C7.70898 11.325 7.99232 11.0417 8.33398 11.0417H11.6673C12.009 11.0417 12.2923 11.325 12.2923 11.6667C12.2923 12.0083 12.009 12.2917 11.6673 12.2917ZM11.6673 9.79167H8.33398C7.99232 9.79167 7.70898 9.50833 7.70898 9.16667C7.70898 8.825 7.99232 8.54167 8.33398 8.54167H11.6673C12.009 8.54167 12.2923 8.825 12.2923 9.16667C12.2923 9.50833 12.009 9.79167 11.6673 9.79167Z" fill="#2F3454"/>
</svg>
