<svg width="20" height="20" viewBox="0 0 20 20" fill="none" xmlns="http://www.w3.org/2000/svg">
<path d="M13.491 1.6665H6.50768C3.47435 1.6665 1.66602 3.47484 1.66602 6.50817V13.4832C1.66602 16.5248 3.47435 18.3332 6.50768 18.3332H13.4827C16.516 18.3332 18.3243 16.5248 18.3243 13.4915V6.50817C18.3327 3.47484 16.5243 1.6665 13.491 1.6665ZM12.7993 11.9165C13.041 12.1582 13.041 12.5582 12.7993 12.7998C12.6743 12.9248 12.516 12.9832 12.3577 12.9832C12.1993 12.9832 12.041 12.9248 11.916 12.7998L9.99935 10.8832L8.08268 12.7998C7.95768 12.9248 7.79935 12.9832 7.64102 12.9832C7.48268 12.9832 7.32435 12.9248 7.19935 12.7998C6.95768 12.5582 6.95768 12.1582 7.19935 11.9165L9.11601 9.99984L7.19935 8.08317C6.95768 7.8415 6.95768 7.4415 7.19935 7.19984C7.44102 6.95817 7.84102 6.95817 8.08268 7.19984L9.99935 9.1165L11.916 7.19984C12.1577 6.95817 12.5577 6.95817 12.7993 7.19984C13.041 7.4415 13.041 7.8415 12.7993 8.08317L10.8827 9.99984L12.7993 11.9165Z" fill="#2F3454"/>
</svg>
