<svg width="20" height="20" viewBox="0 0 20 20" fill="none" xmlns="http://www.w3.org/2000/svg">
<path d="M13.1658 1.84158C12.8241 1.49991 12.2324 1.73325 12.2324 2.20825V5.11658C12.2324 6.33325 13.2658 7.34158 14.5241 7.34158C15.3158 7.34991 16.4158 7.34991 17.3574 7.34991C17.8324 7.34991 18.0824 6.79158 17.7491 6.45825C16.5491 5.24991 14.3991 3.07491 13.1658 1.84158Z" fill="#2F3454"/>
<path d="M17.084 8.4915H14.6757C12.7007 8.4915 11.0923 6.88317 11.0923 4.90817V2.49984C11.0923 2.0415 10.7173 1.6665 10.259 1.6665H6.72565C4.15898 1.6665 2.08398 3.33317 2.08398 6.30817V13.6915C2.08398 16.6665 4.15898 18.3332 6.72565 18.3332H13.2757C15.8423 18.3332 17.9173 16.6665 17.9173 13.6915V9.32484C17.9173 8.8665 17.5423 8.4915 17.084 8.4915ZM9.58398 14.7915H6.25065C5.90898 14.7915 5.62565 14.5082 5.62565 14.1665C5.62565 13.8248 5.90898 13.5415 6.25065 13.5415H9.58398C9.92565 13.5415 10.209 13.8248 10.209 14.1665C10.209 14.5082 9.92565 14.7915 9.58398 14.7915ZM11.2507 11.4582H6.25065C5.90898 11.4582 5.62565 11.1748 5.62565 10.8332C5.62565 10.4915 5.90898 10.2082 6.25065 10.2082H11.2507C11.5923 10.2082 11.8757 10.4915 11.8757 10.8332C11.8757 11.1748 11.5923 11.4582 11.2507 11.4582Z" fill="#2F3454"/>
</svg>
