<svg width="24" height="24" viewBox="0 0 24 24" fill="none" xmlns="http://www.w3.org/2000/svg">
<path d="M19.5099 5.85L13.5699 2.42C12.5999 1.86 11.3999 1.86 10.4199 2.42L4.48992 5.85C3.51992 6.41 2.91992 7.45 2.91992 8.58V15.42C2.91992 16.54 3.51992 17.58 4.48992 18.15L10.4299 21.58C11.3999 22.14 12.5999 22.14 13.5799 21.58L19.5199 18.15C20.4899 17.59 21.0899 16.55 21.0899 15.42V8.58C21.0799 7.45 20.4799 6.42 19.5099 5.85ZM11.2899 7.75C11.2899 7.34 11.5899 7 11.9999 7C12.4099 7 12.7499 7.34 12.7499 7.75V13C12.7499 13.41 12.4099 13.75 11.9999 13.75C11.5899 13.75 11.2499 13.41 11.2499 13C11.2499 13 11.2899 9.80025 11.2899 7.75ZM12.9199 16.63C12.8699 16.75 12.7999 16.86 12.7099 16.96C12.5199 17.15 12.2699 17.25 11.9999 17.25C11.8699 17.25 11.7399 17.22 11.6199 17.17C11.4899 17.12 11.3899 17.05 11.2899 16.96C11.1999 16.86 11.1299 16.75 11.0699 16.63C11.0199 16.51 10.9999 16.38 10.9999 16.25C10.9999 15.99 11.0999 15.73 11.2899 15.54C11.3899 15.45 11.4899 15.38 11.6199 15.33C11.9899 15.17 12.4299 15.26 12.7099 15.54C12.7999 15.64 12.8699 15.74 12.9199 15.87C12.9699 15.99 12.9999 16.12 12.9999 16.25C12.9999 16.38 12.9699 16.51 12.9199 16.63Z" fill="#2F3454"/>
<rect x="9" y="6" width="6" height="13" fill="#2F3454"/>
<path d="M12.168 7.336C13 7.336 13.668 7.564 14.172 8.02C14.684 8.468 14.94 9.088 14.94 9.88C14.94 10.664 14.688 11.264 14.184 11.68C13.68 12.088 13.012 12.292 12.18 12.292L12.132 13.216H10.656L10.596 11.176H11.136C11.832 11.176 12.368 11.084 12.744 10.9C13.12 10.716 13.308 10.38 13.308 9.892C13.308 9.54 13.204 9.26 12.996 9.052C12.796 8.844 12.52 8.74 12.168 8.74C11.8 8.74 11.512 8.84 11.304 9.04C11.104 9.24 11.004 9.516 11.004 9.868H9.42C9.412 9.38 9.516 8.944 9.732 8.56C9.948 8.176 10.264 7.876 10.68 7.66C11.104 7.444 11.6 7.336 12.168 7.336ZM11.388 16.084C11.084 16.084 10.832 15.992 10.632 15.808C10.44 15.616 10.344 15.38 10.344 15.1C10.344 14.82 10.44 14.588 10.632 14.404C10.832 14.212 11.084 14.116 11.388 14.116C11.684 14.116 11.928 14.212 12.12 14.404C12.312 14.588 12.408 14.82 12.408 15.1C12.408 15.38 12.312 15.616 12.12 15.808C11.928 15.992 11.684 16.084 11.388 16.084Z" fill="#F9F9F9"/>
</svg>
