<svg width="20" height="20" viewBox="0 0 20 20" fill="none" xmlns="http://www.w3.org/2000/svg">
<path d="M17.084 8.4915H14.6757C12.7007 8.4915 11.0923 6.88317 11.0923 4.90817V2.49984C11.0923 2.0415 10.7173 1.6665 10.259 1.6665H6.72565C4.15898 1.6665 2.08398 3.33317 2.08398 6.30817V13.6915C2.08398 16.6665 4.15898 18.3332 6.72565 18.3332H13.2757C15.8423 18.3332 17.9173 16.6665 17.9173 13.6915V9.32484C17.9173 8.8665 17.5423 8.4915 17.084 8.4915ZM9.60898 11.2748C9.48398 11.3998 9.32565 11.4582 9.16732 11.4582C9.00898 11.4582 8.85065 11.3998 8.72565 11.2748L8.12565 10.6748V14.1665C8.12565 14.5082 7.84232 14.7915 7.50065 14.7915C7.15898 14.7915 6.87565 14.5082 6.87565 14.1665V10.6748L6.27565 11.2748C6.03398 11.5165 5.63398 11.5165 5.39232 11.2748C5.15065 11.0332 5.15065 10.6332 5.39232 10.3915L7.05898 8.72484C7.11732 8.67484 7.17565 8.63317 7.24232 8.59984C7.25898 8.5915 7.28398 8.58317 7.30065 8.57484C7.35065 8.55817 7.40065 8.54984 7.45898 8.5415C7.48398 8.5415 7.50065 8.5415 7.52565 8.5415C7.59232 8.5415 7.65898 8.55817 7.72565 8.58317C7.73398 8.58317 7.73398 8.58317 7.74232 8.58317C7.80898 8.60817 7.87565 8.65817 7.92565 8.70817C7.93398 8.7165 7.94232 8.7165 7.94232 8.72484L9.60898 10.3915C9.85065 10.6332 9.85065 11.0332 9.60898 11.2748Z" fill="#2F3454"/>
<path d="M14.5241 7.34158C15.3158 7.34991 16.4158 7.34991 17.3574 7.34991C17.8324 7.34991 18.0824 6.79158 17.7491 6.45825C16.5491 5.24991 14.3991 3.07491 13.1658 1.84158C12.8241 1.49991 12.2324 1.73325 12.2324 2.20825V5.11658C12.2324 6.33325 13.2658 7.34158 14.5241 7.34158Z" fill="#2F3454"/>
</svg>
