<svg width="20" height="20" viewBox="0 0 20 20" fill="none" xmlns="http://www.w3.org/2000/svg">
<path d="M10.625 12.0999H10.8167C11.0917 12.0999 11.325 11.8499 11.325 11.5416C11.325 11.1499 11.2333 11.0999 10.9667 11.0083L10.625 10.8916V12.0999Z" fill="url(#paint0_linear_1105_9374)"/>
<path d="M9.99935 1.6665C5.39935 1.6665 1.66602 5.39984 1.66602 9.99984C1.66602 14.5998 5.39935 18.3332 9.99935 18.3332C14.5993 18.3332 18.3327 14.5998 18.3327 9.99984C18.3327 5.39984 14.5993 1.6665 9.99935 1.6665ZM6.316 13.6832C6.55767 13.9248 6.55767 14.3248 6.316 14.5665C6.191 14.6915 6.03267 14.7498 5.87434 14.7498C5.71601 14.7498 5.55767 14.6915 5.43267 14.5665C4.21601 13.3498 3.54102 11.7248 3.54102 9.99984C3.54102 8.27484 4.21601 6.64983 5.43267 5.43317C5.67434 5.1915 6.07434 5.1915 6.316 5.43317C6.55767 5.67483 6.55767 6.07484 6.316 6.31651C5.33267 7.29984 4.79102 8.60817 4.79102 9.99984C4.79102 11.3915 5.33267 12.6998 6.316 13.6832ZM11.3743 9.8165C12.1743 10.0998 12.566 10.6582 12.566 11.5332C12.566 12.5332 11.7827 13.3415 10.8077 13.3415H10.616V13.4915C10.616 13.8332 10.3327 14.1165 9.99101 14.1165C9.64934 14.1165 9.36601 13.8332 9.36601 13.4915V13.3415H9.34101C8.28268 13.3415 7.41601 12.4498 7.41601 11.3582C7.41601 11.0165 7.69934 10.7332 8.04101 10.7332C8.38268 10.7332 8.66601 11.0165 8.66601 11.3582C8.66601 11.7665 8.96601 12.0915 9.34101 12.0915H9.36601V10.4415L8.61601 10.1748C7.81601 9.8915 7.42435 9.33317 7.42435 8.45817C7.42435 7.45817 8.20767 6.64984 9.18267 6.64984H9.37435V6.49984C9.37435 6.15817 9.65768 5.87484 9.99935 5.87484C10.341 5.87484 10.6243 6.15817 10.6243 6.49984V6.64984H10.6493C11.7077 6.64984 12.5743 7.5415 12.5743 8.63317C12.5743 8.97484 12.291 9.25817 11.9493 9.25817C11.6077 9.25817 11.3243 8.97484 11.3243 8.63317C11.3243 8.22484 11.0243 7.89984 10.6493 7.89984H10.6243V9.54984L11.3743 9.8165ZM14.566 14.5665C14.441 14.6915 14.2827 14.7498 14.1244 14.7498C13.966 14.7498 13.8077 14.6915 13.6827 14.5665C13.441 14.3248 13.441 13.9248 13.6827 13.6832C14.666 12.6998 15.2077 11.3915 15.2077 9.99984C15.2077 8.60817 14.666 7.29984 13.6827 6.31651C13.441 6.07484 13.441 5.67483 13.6827 5.43317C13.9244 5.1915 14.3244 5.1915 14.566 5.43317C15.7827 6.64983 16.4577 8.27484 16.4577 9.99984C16.4577 11.7248 15.7827 13.3498 14.566 14.5665Z" fill="url(#paint1_linear_1105_9374)"/>
<path d="M8.68359 8.46657C8.68359 8.85824 8.77525 8.90824 9.04192 8.9999L9.38359 9.11657V7.8999H9.19191C8.90858 7.8999 8.68359 8.15824 8.68359 8.46657Z" fill="url(#paint2_linear_1105_9374)"/>
<defs>
<linearGradient id="paint0_linear_1105_9374" x1="10.8146" y1="10.7657" x2="11.5919" y2="11.8621" gradientUnits="userSpaceOnUse">
<stop stop-color="#4A4AB0"/>
<stop offset="0.145833" stop-color="#6363D0"/>
<stop offset="0.364583" stop-color="#8989FF"/>
<stop offset="0.557292" stop-color="#998DEC"/>
<stop offset="0.833333" stop-color="#D89D9F"/>
<stop offset="0.9998" stop-color="#F1A382"/>
<stop offset="0.9999" stop-color="#FFA771"/>
<stop offset="1" stop-color="#F8F8F8"/>
</linearGradient>
<linearGradient id="paint1_linear_1105_9374" x1="6.1799" y1="-0.0696069" x2="14.166" y2="19.3748" gradientUnits="userSpaceOnUse">
<stop stop-color="#4A4AB0"/>
<stop offset="0.145833" stop-color="#6363D0"/>
<stop offset="0.364583" stop-color="#8989FF"/>
<stop offset="0.557292" stop-color="#998DEC"/>
<stop offset="0.833333" stop-color="#D89D9F"/>
<stop offset="0.9998" stop-color="#F1A382"/>
<stop offset="0.9999" stop-color="#FFA771"/>
<stop offset="1" stop-color="#F8F8F8"/>
</linearGradient>
<linearGradient id="paint2_linear_1105_9374" x1="8.87318" y1="7.77317" x2="9.65763" y2="8.87206" gradientUnits="userSpaceOnUse">
<stop stop-color="#4A4AB0"/>
<stop offset="0.145833" stop-color="#6363D0"/>
<stop offset="0.364583" stop-color="#8989FF"/>
<stop offset="0.557292" stop-color="#998DEC"/>
<stop offset="0.833333" stop-color="#D89D9F"/>
<stop offset="0.9998" stop-color="#F1A382"/>
<stop offset="0.9999" stop-color="#FFA771"/>
<stop offset="1" stop-color="#F8F8F8"/>
</linearGradient>
</defs>
</svg>
