<svg width="24" height="24" viewBox="0 0 24 24" fill="none" xmlns="http://www.w3.org/2000/svg">
<path d="M17.0408 10.64L9.69083 3.29001L8.82083 2.42001C8.53083 2.13001 8.05083 2.13001 7.76083 2.42001C7.47083 2.71001 7.47083 3.19001 7.76083 3.48001L8.63083 4.35001L3.00083 9.98001C2.36083 10.62 2.02083 11.27 2.00083 11.92C1.98083 12.61 2.32083 13.3 3.00083 13.99L7.01083 18C8.35083 19.33 9.69083 19.33 11.0208 18L17.0408 11.98C17.2408 11.78 17.3308 11.51 17.3108 11.25C17.3008 11.03 17.2008 10.8 17.0408 10.64Z" fill="#2F3454"/>
<path d="M16 22.75H3C2.59 22.75 2.25 22.41 2.25 22C2.25 21.59 2.59 21.25 3 21.25H16C16.41 21.25 16.75 21.59 16.75 22C16.75 22.41 16.41 22.75 16 22.75Z" fill="#2F3454"/>
<path d="M19.35 14.78C19.09 14.5 18.61 14.5 18.35 14.78C18.04 15.12 16.5 16.85 16.5 18.17C16.5 19.47 17.55 20.52 18.85 20.52C20.15 20.52 21.2 19.47 21.2 18.17C21.2 16.86 19.66 15.12 19.35 14.78Z" fill="#2F3454"/>
</svg>
