<svg width="16" height="16" viewBox="0 0 16 16" fill="none" xmlns="http://www.w3.org/2000/svg">
<path d="M8.0026 1.33325C4.32927 1.33325 1.33594 4.32659 1.33594 7.99992C1.33594 11.6733 4.32927 14.6666 8.0026 14.6666C11.6759 14.6666 14.6693 11.6733 14.6693 7.99992C14.6693 4.32659 11.6759 1.33325 8.0026 1.33325ZM10.9026 10.3799C10.8093 10.5399 10.6426 10.6266 10.4693 10.6266C10.3826 10.6266 10.2959 10.6066 10.2159 10.5533L8.14927 9.31992C7.63594 9.01325 7.25594 8.33992 7.25594 7.74659V5.01325C7.25594 4.73992 7.4826 4.51325 7.75594 4.51325C8.02927 4.51325 8.25594 4.73992 8.25594 5.01325V7.74659C8.25594 7.98659 8.45594 8.33992 8.6626 8.45992L10.7293 9.69325C10.9693 9.83325 11.0493 10.1399 10.9026 10.3799Z" fill="white"/>
</svg>
