<svg width="16" height="16" viewBox="0 0 16 16" fill="none" xmlns="http://www.w3.org/2000/svg">
<path d="M8.0026 1.33325C4.32927 1.33325 1.33594 4.32659 1.33594 7.99992C1.33594 11.6733 4.32927 14.6666 8.0026 14.6666C11.6759 14.6666 14.6693 11.6733 14.6693 7.99992C14.6693 4.32659 11.6759 1.33325 8.0026 1.33325ZM11.1893 6.46659L7.40927 10.2466C7.31594 10.3399 7.18927 10.3933 7.05594 10.3933C6.9226 10.3933 6.79594 10.3399 6.7026 10.2466L4.81594 8.35992C4.6226 8.16659 4.6226 7.84659 4.81594 7.65325C5.00927 7.45992 5.32927 7.45992 5.5226 7.65325L7.05594 9.18659L10.4826 5.75992C10.6759 5.56659 10.9959 5.56659 11.1893 5.75992C11.3826 5.95325 11.3826 6.26659 11.1893 6.46659Z" fill="#D0CBAB"/>
</svg>
