<svg width="32" height="32" viewBox="0 0 32 32" fill="none" xmlns="http://www.w3.org/2000/svg">
<path d="M29.3337 25.3333V29.3333H2.66699V25.3333C2.66699 24.6 3.26699 24 4.00033 24H28.0003C28.7337 24 29.3337 24.6 29.3337 25.3333Z" fill="white" stroke="white" stroke-width="1.5" stroke-miterlimit="10" stroke-linecap="round" stroke-linejoin="round"/>
<path d="M9.33366 14.667H6.66699V24.0003H9.33366V14.667Z" fill="white"/>
<path d="M14.6667 14.667H12V24.0003H14.6667V14.667Z" fill="white"/>
<path d="M19.9997 14.667H17.333V24.0003H19.9997V14.667Z" fill="white"/>
<path d="M25.3337 14.667H22.667V24.0003H25.3337V14.667Z" fill="white"/>
<path d="M30.6663 30.333H1.33301C0.786341 30.333 0.333008 29.8797 0.333008 29.333C0.333008 28.7863 0.786341 28.333 1.33301 28.333H30.6663C31.213 28.333 31.6663 28.7863 31.6663 29.333C31.6663 29.8797 31.213 30.333 30.6663 30.333Z" fill="white"/>
<path d="M28.4937 7.66711L16.4937 2.86711C16.227 2.76044 15.7737 2.76044 15.507 2.86711L3.50699 7.66711C3.04033 7.85378 2.66699 8.40044 2.66699 8.90711V13.3338C2.66699 14.0671 3.26699 14.6671 4.00033 14.6671H28.0003C28.7337 14.6671 29.3337 14.0671 29.3337 13.3338V8.90711C29.3337 8.40044 28.9603 7.85378 28.4937 7.66711ZM16.0003 11.3338C14.8937 11.3338 14.0003 10.4404 14.0003 9.33378C14.0003 8.22711 14.8937 7.33378 16.0003 7.33378C17.107 7.33378 18.0003 8.22711 18.0003 9.33378C18.0003 10.4404 17.107 11.3338 16.0003 11.3338Z" fill="white"/>
</svg>
