<svg width="32" height="32" viewBox="0 0 32 32" fill="none" xmlns="http://www.w3.org/2000/svg">
<path d="M28.4003 16.3066H23.7603C22.4537 16.3066 21.2937 17.0266 20.707 18.2L19.587 20.4133C19.3203 20.9466 18.787 21.28 18.2003 21.28H13.827C13.4137 21.28 12.827 21.1866 12.4403 20.4133L11.3203 18.2133C10.7337 17.0533 9.56032 16.32 8.26699 16.32H3.60033C3.08033 16.32 2.66699 16.7333 2.66699 17.2533V21.6C2.66699 26.44 5.57366 29.3333 10.427 29.3333H21.6003C26.1737 29.3333 28.987 26.8266 29.3337 22.3733V17.24C29.3337 16.7333 28.9203 16.3066 28.4003 16.3066Z" fill="#8A8A8A"/>
<path d="M21.587 2.66669H10.4137C5.56033 2.66669 2.66699 5.56002 2.66699 10.4134V14.4667C2.96033 14.36 3.28033 14.3067 3.60033 14.3067H8.26699C10.3337 14.3067 12.187 15.4534 13.107 17.3067L14.107 19.2667H17.9203L18.9203 17.2934C19.8403 15.4534 21.6937 14.3067 23.7603 14.3067H28.4003C28.7203 14.3067 29.0403 14.36 29.3337 14.4667V10.4134C29.3337 5.56002 26.4403 2.66669 21.587 2.66669ZM13.9337 7.21335H18.067C18.5737 7.21335 19.0003 7.62669 19.0003 8.13335C19.0003 8.65335 18.5737 9.06669 18.067 9.06669H13.9337C13.427 9.06669 13.0003 8.65335 13.0003 8.13335C13.0003 7.62669 13.427 7.21335 13.9337 7.21335ZM19.107 12.7867H12.8937C12.387 12.7867 11.9737 12.3734 11.9737 11.8667C11.9737 11.3467 12.387 10.9334 12.8937 10.9334H19.107C19.6137 10.9334 20.027 11.3467 20.027 11.8667C20.027 12.3734 19.6137 12.7867 19.107 12.7867Z" fill="#8A8A8A"/>
</svg>
