<?xml version="1.0" encoding="UTF-8"?>
<svg id="Layer_1" data-name="Layer 1" xmlns="http://www.w3.org/2000/svg" viewBox="0 0 45.5 59.53">
  <defs>
    <style>
      .cls-1 {
        fill: none;
        stroke: #2f3454;
        stroke-width: 3px;
      }
    </style>
  </defs>
  <path class="cls-1" d="M3.81,57.41h0c-.73,.46-1.25,.59-1.54,.62-.14,.01-.22,0-.26-.01-.02,0-.03,0-.04-.01,0,0,0,0,0,0,0,0,0,0,0,0,0,0-.01-.01-.03-.03-.03-.04-.08-.11-.14-.26-.13-.3-.28-.88-.28-1.82V9.59C1.5,5.15,4.74,1.5,8.68,1.5h28.14c3.94,0,7.18,3.65,7.18,8.09V55.87c0,.94-.15,1.52-.27,1.81-.06,.14-.11,.22-.14,.25-.01,.02-.02,.03-.03,.03,0,0,0,0,0,0,0,0,0,0-.01,0,0,0-.02,0-.04,.01-.04,.01-.13,.03-.28,.01-.3-.02-.83-.15-1.57-.61l-14.19-8.91s0,0,0,0c-1.51-.95-3.22-1.29-4.7-1.29s-3.19,.34-4.7,1.27h0s-.03,.02-.03,.02L3.81,57.41Z"/>
</svg>