<svg width="20" height="20" viewBox="0 0 20 20" fill="none" xmlns="http://www.w3.org/2000/svg">
<path d="M17.0837 13.3333V15.4167C17.0837 17.025 15.7753 18.3333 14.167 18.3333H5.83366C4.22533 18.3333 2.91699 17.025 2.91699 15.4167V14.875C2.91699 13.5667 3.98366 12.5 5.29199 12.5H16.2503C16.7087 12.5 17.0837 12.875 17.0837 13.3333Z" fill="white"/>
<path d="M12.917 1.66699H7.08366C3.75033 1.66699 2.91699 2.50033 2.91699 5.83366V12.1503C3.55033 11.592 4.38366 11.2503 5.29199 11.2503H16.2503C16.7087 11.2503 17.0837 10.8753 17.0837 10.417V5.83366C17.0837 2.50033 16.2503 1.66699 12.917 1.66699ZM10.8337 8.95866H6.66699C6.32533 8.95866 6.04199 8.67533 6.04199 8.33366C6.04199 7.99199 6.32533 7.70866 6.66699 7.70866H10.8337C11.1753 7.70866 11.4587 7.99199 11.4587 8.33366C11.4587 8.67533 11.1753 8.95866 10.8337 8.95866ZM13.3337 6.04199H6.66699C6.32533 6.04199 6.04199 5.75866 6.04199 5.41699C6.04199 5.07533 6.32533 4.79199 6.66699 4.79199H13.3337C13.6753 4.79199 13.9587 5.07533 13.9587 5.41699C13.9587 5.75866 13.6753 6.04199 13.3337 6.04199Z" fill="white"/>
</svg>
