<svg width="32" height="32" viewBox="0 0 32 32" fill="none" xmlns="http://www.w3.org/2000/svg">
<path d="M28.1204 9.30667C26.987 8.05333 25.0937 7.42667 22.347 7.42667H22.027V7.37333C22.027 5.13333 22.027 2.36 17.0137 2.36H14.987C9.97371 2.36 9.97371 5.14667 9.97371 7.37333V7.44H9.65371C6.89371 7.44 5.01371 8.06667 3.88038 9.32C2.56038 10.7867 2.60038 12.76 2.73371 14.1067L2.74704 14.2L2.85783 15.3633C2.8721 15.5131 2.95293 15.6484 3.07869 15.731C3.38568 15.9326 3.97633 16.3155 4.32038 16.5067C4.50704 16.6267 4.70704 16.7333 4.90704 16.84C7.18704 18.0933 9.69371 18.9333 12.2404 19.3467C12.3604 20.6 12.907 22.0667 15.827 22.0667C18.747 22.0667 19.3204 20.6133 19.4137 19.32C22.1337 18.88 24.7604 17.9333 27.1337 16.5467C27.2137 16.5067 27.267 16.4667 27.3337 16.4267C27.8836 16.1159 28.4548 15.7301 28.9707 15.3558C29.0835 15.2739 29.1558 15.1479 29.1712 15.0094L29.2004 14.7467L29.267 14.12C29.2804 14.04 29.2804 13.9733 29.2937 13.88C29.4004 12.5333 29.3737 10.6933 28.1204 9.30667ZM17.4537 18.44C17.4537 19.8533 17.4537 20.0667 15.8137 20.0667C14.1737 20.0667 14.1737 19.8133 14.1737 18.4533V16.7733H17.4537V18.44ZM11.8804 7.42667V7.37333C11.8804 5.10667 11.8804 4.26667 14.987 4.26667H17.0137C20.1204 4.26667 20.1204 5.12 20.1204 7.37333V7.44H11.8804V7.42667Z" fill="white"/>
<path d="M28.1029 18.1825C28.4559 18.013 28.8611 18.2939 28.8257 18.6839L28.3201 24.2533C28.0401 26.92 26.9468 29.64 21.0801 29.64H10.9201C5.05345 29.64 3.96012 26.92 3.68012 24.2667L3.19941 18.9788C3.16436 18.5934 3.56105 18.3132 3.91317 18.4739C5.37082 19.139 8.49371 20.5169 10.3226 20.9779C10.4873 21.0195 10.6213 21.1371 10.6901 21.2924C11.4819 23.0764 13.2523 24.0267 15.8268 24.0267C18.3758 24.0267 20.1695 23.0399 20.9633 21.2526C21.0323 21.0972 21.1667 20.9795 21.3316 20.9378C23.2712 20.4474 26.584 18.9116 28.1029 18.1825Z" fill="white"/>
</svg>
