<svg width="20" height="20" viewBox="0 0 20 20" fill="none" xmlns="http://www.w3.org/2000/svg">
<path d="M9.60003 1.66669C5.24668 1.66669 1.69922 5.40835 1.69922 10C1.69922 14.5917 5.24668 18.3334 9.60003 18.3334C13.9534 18.3334 17.5008 14.5917 17.5008 10C17.5008 5.40835 13.9534 1.66669 9.60003 1.66669ZM13.0369 12.975C12.9263 13.175 12.7287 13.2834 12.5233 13.2834C12.4206 13.2834 12.3179 13.2584 12.2231 13.1917L9.77384 11.65C9.16548 11.2667 8.71514 10.425 8.71514 9.68335V6.26669C8.71514 5.92502 8.98376 5.64169 9.3077 5.64169C9.63163 5.64169 9.90026 5.92502 9.90026 6.26669V9.68335C9.90026 9.98335 10.1373 10.425 10.3822 10.575L12.8315 12.1167C13.1159 12.2917 13.2107 12.675 13.0369 12.975Z" fill="#2F3454"/>
</svg>
