<svg width="32" height="32" viewBox="0 0 32 32" fill="none" xmlns="http://www.w3.org/2000/svg">
<path d="M21.587 2.66699H10.4137C5.56033 2.66699 2.66699 5.56033 2.66699 10.4137V21.5737C2.66699 26.4403 5.56033 29.3337 10.4137 29.3337H21.5737C26.427 29.3337 29.3203 26.4403 29.3203 21.587V10.4137C29.3337 5.56033 26.4403 2.66699 21.587 2.66699ZM13.2537 17.6937C12.347 19.0537 11.0937 20.1603 9.62699 20.8937C9.49366 20.9603 9.33366 21.0003 9.18699 21.0003C8.81366 21.0003 8.46699 20.8003 8.29366 20.4537C8.04033 19.9603 8.24033 19.3603 8.74699 19.107C9.90699 18.5337 10.8937 17.6537 11.6003 16.587C11.8403 16.227 11.8403 15.7737 11.6003 15.4137C10.8803 14.347 9.89366 13.467 8.74699 12.8937C8.24033 12.6537 8.04033 12.0537 8.29366 11.547C8.53366 11.0537 9.13366 10.8537 9.62699 11.107C11.0937 11.8403 12.347 12.947 13.2537 14.307C13.947 15.3337 13.947 16.667 13.2537 17.6937ZM22.667 21.0003H17.3337C16.787 21.0003 16.3337 20.547 16.3337 20.0003C16.3337 19.4537 16.787 19.0003 17.3337 19.0003H22.667C23.2137 19.0003 23.667 19.4537 23.667 20.0003C23.667 20.547 23.2137 21.0003 22.667 21.0003Z" fill="white"/>
</svg>
