<svg width="32" height="32" viewBox="0 0 32 32" fill="none" xmlns="http://www.w3.org/2000/svg">
<path d="M21.587 2.66669H10.4137C5.56033 2.66669 2.66699 5.56002 2.66699 10.4134V21.5734C2.66699 26.44 5.56033 29.3334 10.4137 29.3334H21.5737C26.427 29.3334 29.3203 26.44 29.3203 21.5867V10.4134C29.3337 5.56002 26.4403 2.66669 21.587 2.66669ZM13.2537 17.6934C12.347 19.0534 11.0937 20.16 9.62699 20.8934C9.49366 20.96 9.33366 21 9.18699 21C8.81366 21 8.46699 20.8 8.29366 20.4534C8.04033 19.96 8.24033 19.36 8.74699 19.1067C9.90699 18.5334 10.8937 17.6534 11.6003 16.5867C11.8403 16.2267 11.8403 15.7734 11.6003 15.4134C10.8803 14.3467 9.89366 13.4667 8.74699 12.8934C8.24033 12.6534 8.04033 12.0534 8.29366 11.5467C8.53366 11.0534 9.13366 10.8534 9.62699 11.1067C11.0937 11.84 12.347 12.9467 13.2537 14.3067C13.947 15.3334 13.947 16.6667 13.2537 17.6934ZM22.667 21H17.3337C16.787 21 16.3337 20.5467 16.3337 20C16.3337 19.4534 16.787 19 17.3337 19H22.667C23.2137 19 23.667 19.4534 23.667 20C23.667 20.5467 23.2137 21 22.667 21Z" fill="#2F3454"/>
</svg>
