<svg width="32" height="32" viewBox="0 0 32 32" fill="none" xmlns="http://www.w3.org/2000/svg">
<path d="M21.0666 2.94664C20.5199 2.39997 19.5732 2.7733 19.5732 3.5333V8.18664C19.5732 10.1333 21.2266 11.7466 23.2399 11.7466C24.5066 11.76 26.2666 11.76 27.7732 11.76C28.5332 11.76 28.9332 10.8666 28.3999 10.3333C26.4799 8.39997 23.0399 4.91997 21.0666 2.94664Z" fill="#2F3454"/>
<path d="M27.333 13.5867H23.4797C20.3197 13.5867 17.7463 11.0134 17.7463 7.85335V4.00002C17.7463 3.26669 17.1463 2.66669 16.413 2.66669H10.7597C6.65301 2.66669 3.33301 5.33335 3.33301 10.0934V21.9067C3.33301 26.6667 6.65301 29.3334 10.7597 29.3334H21.2397C25.3463 29.3334 28.6663 26.6667 28.6663 21.9067V14.92C28.6663 14.1867 28.0663 13.5867 27.333 13.5867ZM15.333 23.6667H9.99967C9.45301 23.6667 8.99967 23.2134 8.99967 22.6667C8.99967 22.12 9.45301 21.6667 9.99967 21.6667H15.333C15.8797 21.6667 16.333 22.12 16.333 22.6667C16.333 23.2134 15.8797 23.6667 15.333 23.6667ZM17.9997 18.3334H9.99967C9.45301 18.3334 8.99967 17.88 8.99967 17.3334C8.99967 16.7867 9.45301 16.3334 9.99967 16.3334H17.9997C18.5463 16.3334 18.9997 16.7867 18.9997 17.3334C18.9997 17.88 18.5463 18.3334 17.9997 18.3334Z" fill="#2F3454"/>
</svg>
