<svg width="20" height="20" viewBox="0 0 20 20" fill="none" xmlns="http://www.w3.org/2000/svg">
<path d="M13.1667 1.84167C12.8251 1.5 12.2334 1.73334 12.2334 2.20834V5.11667C12.2334 6.33334 13.2667 7.34167 14.5251 7.34167C15.3167 7.35 16.4167 7.35 17.3584 7.35C17.8334 7.35 18.0834 6.79167 17.7501 6.45834C16.5501 5.25 14.4001 3.075 13.1667 1.84167Z" fill="#8A8A8A"/>
<path d="M17.0835 8.49166H14.6752C12.7002 8.49166 11.0918 6.88332 11.0918 4.90832V2.49999C11.0918 2.04166 10.7168 1.66666 10.2585 1.66666H6.72516C4.1585 1.66666 2.0835 3.33332 2.0835 6.30832V13.6917C2.0835 16.6667 4.1585 18.3333 6.72516 18.3333H13.2752C15.8418 18.3333 17.9168 16.6667 17.9168 13.6917V9.32499C17.9168 8.86666 17.5418 8.49166 17.0835 8.49166ZM9.5835 14.7917H6.25016C5.9085 14.7917 5.62516 14.5083 5.62516 14.1667C5.62516 13.825 5.9085 13.5417 6.25016 13.5417H9.5835C9.92516 13.5417 10.2085 13.825 10.2085 14.1667C10.2085 14.5083 9.92516 14.7917 9.5835 14.7917ZM11.2502 11.4583H6.25016C5.9085 11.4583 5.62516 11.175 5.62516 10.8333C5.62516 10.4917 5.9085 10.2083 6.25016 10.2083H11.2502C11.5918 10.2083 11.8752 10.4917 11.8752 10.8333C11.8752 11.175 11.5918 11.4583 11.2502 11.4583Z" fill="#8A8A8A"/>
</svg>
