<svg width="18" height="18" viewBox="0 0 18 18" fill="none" xmlns="http://www.w3.org/2000/svg">
<path d="M8.97441 0.583388C4.3744 0.600055 0.649405 4.34172 0.666071 8.94172C0.682738 13.5417 4.4244 17.2667 9.0244 17.2501C13.6244 17.2334 17.3494 13.4917 17.3327 8.89172C17.3161 4.29172 13.5744 0.575055 8.97441 0.583388ZM10.8827 9.00005C11.5327 9.22505 12.4077 9.70839 12.4077 11.2001C12.4077 12.4834 11.3994 13.5167 10.1661 13.5167H9.6244V14.0001C9.6244 14.3417 9.34107 14.6251 8.9994 14.6251C8.65774 14.6251 8.3744 14.3417 8.3744 14.0001V13.5167H8.07441C6.70774 13.5167 5.5994 12.3667 5.5994 10.9501C5.5994 10.6084 5.88274 10.3251 6.2244 10.3251C6.56607 10.3251 6.8494 10.6084 6.8494 10.9501C6.8494 11.6751 7.39941 12.2667 8.07441 12.2667H8.3744V9.45005L7.11607 9.00005C6.46607 8.77505 5.59107 8.29172 5.59107 6.80005C5.59107 5.51672 6.59941 4.48339 7.83274 4.48339H8.3744V4.00005C8.3744 3.65839 8.65774 3.37505 8.9994 3.37505C9.34107 3.37505 9.6244 3.65839 9.6244 4.00005V4.48339H9.92441C11.2911 4.48339 12.3994 5.63339 12.3994 7.05005C12.3994 7.39172 12.1161 7.67505 11.7744 7.67505C11.4327 7.67505 11.1494 7.39172 11.1494 7.05005C11.1494 6.32505 10.5994 5.73339 9.92441 5.73339H9.6244V8.55005L10.8827 9.00005Z" fill="#2F3454"/>
</svg>
