<?xml version="1.0" encoding="UTF-8"?>
<svg id="Layer_1" data-name="Layer 1" xmlns="http://www.w3.org/2000/svg" viewBox="0 0 16.67 16.67">
  <defs>
    <style>
      .cls-1 {
        fill: #2f3454;
      }
    </style>
  </defs>
  <path class="cls-1" d="M8.96,11.68h.54c.54,0,.99-.48,.99-1.07,0-.72-.26-.87-.68-1.02l-.84-.29v2.38h0Z"/>
  <path class="cls-1" d="M8.31,0C3.71,.02-.02,3.76,0,8.36c.02,4.6,3.76,8.33,8.36,8.31,4.6-.02,8.32-3.76,8.31-8.36C16.65,3.71,12.91,0,8.31,0Zm1.91,8.42c.65,.23,1.53,.71,1.53,2.2,0,1.28-1.01,2.32-2.24,2.32h-.54v.48c0,.34-.28,.62-.63,.62s-.62-.28-.62-.62v-.48h-.3c-1.37,0-2.47-1.15-2.47-2.57,0-.34,.28-.62,.62-.62s.62,.28,.62,.62c0,.73,.55,1.32,1.22,1.32h.3v-2.82l-1.26-.45c-.65-.23-1.53-.71-1.53-2.2,0-1.28,1.01-2.32,2.24-2.32h.54v-.48c0-.34,.28-.62,.62-.62s.63,.28,.63,.62v.48h.3c1.37,0,2.48,1.15,2.48,2.57,0,.34-.28,.62-.62,.62s-.62-.28-.62-.62c0-.72-.55-1.32-1.23-1.32h-.3v2.82l1.26,.45Z"/>
  <path class="cls-1" d="M6.18,6.23c0,.73,.26,.87,.68,1.02l.84,.29v-2.38h-.54c-.54,0-.98,.48-.98,1.08Z"/>
</svg>