<svg width="20" height="20" viewBox="0 0 20 20" fill="none" xmlns="http://www.w3.org/2000/svg">
<path d="M14.0253 13.0333C14.5836 12.6667 15.3169 13.0667 15.3169 13.7333V14.8083C15.3169 15.8667 14.4919 17 13.5003 17.3333L10.8419 18.2167C10.3753 18.375 9.61693 18.375 9.15859 18.2167L6.50026 17.3333C5.50026 17 4.68359 15.8667 4.68359 14.8083V13.725C4.68359 13.0667 5.41693 12.6667 5.96693 13.025L7.68359 14.1417C8.34193 14.5833 9.17526 14.8 10.0086 14.8C10.8419 14.8 11.6753 14.5833 12.3336 14.1417L14.0253 13.0333Z" fill="#2F3454"/>
<path d="M16.6503 5.38336L11.6586 2.10836C10.7586 1.5167 9.27526 1.5167 8.37526 2.10836L3.35859 5.38336C1.75026 6.42503 1.75026 8.78336 3.35859 9.83336L4.69193 10.7L8.37526 13.1C9.27526 13.6917 10.7586 13.6917 11.6586 13.1L15.3169 10.7L16.4586 9.95003V12.5C16.4586 12.8417 16.7419 13.125 17.0836 13.125C17.4253 13.125 17.7086 12.8417 17.7086 12.5V8.40003C18.0419 7.32503 17.7003 6.07503 16.6503 5.38336Z" fill="#2F3454"/>
</svg>
