<svg width="20" height="20" viewBox="0 0 20 20" fill="none" xmlns="http://www.w3.org/2000/svg">
<g clip-path="url(#clip0_112_10199)">
<path fill-rule="evenodd" clip-rule="evenodd" d="M10.0004 0.416626C7.62639 0.417858 5.33025 1.25867 3.52253 2.78873C1.71482 4.31878 0.513395 6.4383 0.133096 8.76829C-0.247203 11.0983 0.218415 13.4868 1.4467 15.5068C2.67499 17.5267 4.58584 19.0464 6.83758 19.7941C7.33435 19.8863 7.52147 19.5784 7.52147 19.3166C7.52147 19.0548 7.51153 18.2958 7.50822 17.466C4.72631 18.0669 4.13846 16.292 4.13846 16.292C3.68475 15.1395 3.02901 14.8365 3.02901 14.8365C2.12157 14.2208 3.0969 14.2323 3.0969 14.2323C4.10204 14.3031 4.63027 15.258 4.63027 15.258C5.52115 16.7777 6.97005 16.3381 7.53969 16.0813C7.6291 15.4375 7.88909 14.9995 8.17556 14.7509C5.95333 14.5007 3.61851 13.6478 3.61851 9.83781C3.60473 8.84972 3.97349 7.89417 4.64848 7.16886C4.54582 6.9186 4.20304 5.90765 4.74618 4.53449C4.74618 4.53449 5.58573 4.26776 7.49664 5.55366C9.1357 5.10798 10.865 5.10798 12.5041 5.55366C14.4133 4.26776 15.2512 4.53449 15.2512 4.53449C15.796 5.90436 15.4533 6.9153 15.3506 7.16886C16.0277 7.89429 16.3972 8.8515 16.3822 9.8411C16.3822 13.6593 14.0424 14.5007 11.8169 14.746C12.1746 15.0555 12.4942 15.6598 12.4942 16.5884C12.4942 17.9188 12.4826 18.989 12.4826 19.3166C12.4826 19.5817 12.663 19.8912 13.1698 19.7941C15.4218 19.0463 17.3328 17.5264 18.5611 15.5061C19.7893 13.4858 20.2547 11.0969 19.874 8.76667C19.4932 6.43646 18.2912 4.31692 16.4829 2.78713C14.6746 1.25734 12.3779 0.417077 10.0037 0.416626H10.0004Z" fill="#191717"/>
<path d="M3.78729 14.6933C3.76577 14.7427 3.68628 14.7575 3.6217 14.7229C3.55712 14.6883 3.50911 14.6241 3.53229 14.5731C3.55547 14.522 3.6333 14.5089 3.69788 14.5434C3.76246 14.578 3.81213 14.6439 3.78729 14.6933Z" fill="#191717"/>
<path d="M4.19237 15.1428C4.15807 15.16 4.11884 15.1648 4.08138 15.1563C4.04393 15.1479 4.01058 15.1268 3.98703 15.0967C3.92245 15.0275 3.9092 14.932 3.95888 14.8892C4.00855 14.8464 4.09798 14.8662 4.16256 14.9353C4.22714 15.0045 4.24204 15.1 4.19237 15.1428Z" fill="#191717"/>
<path d="M4.58673 15.7141C4.52546 15.7569 4.42113 15.7141 4.36318 15.6285C4.34715 15.6132 4.33441 15.5947 4.3257 15.5744C4.31699 15.554 4.3125 15.5321 4.3125 15.51C4.3125 15.4878 4.31699 15.4659 4.3257 15.4456C4.33441 15.4252 4.34715 15.4068 4.36318 15.3914C4.42444 15.3503 4.52877 15.3914 4.58673 15.4754C4.64468 15.5594 4.64634 15.6713 4.58673 15.7141V15.7141Z" fill="#191717"/>
<path d="M5.12168 16.2674C5.06704 16.3283 4.95609 16.3118 4.86502 16.2295C4.77394 16.1472 4.75241 16.0352 4.80706 15.9759C4.8617 15.9167 4.97265 15.9331 5.06703 16.0138C5.16142 16.0945 5.17964 16.2081 5.12168 16.2674V16.2674Z" fill="#191717"/>
<path d="M5.87149 16.5901C5.84665 16.6675 5.73404 16.702 5.62144 16.6691C5.50884 16.6362 5.43433 16.544 5.45585 16.4649C5.47738 16.3859 5.59164 16.3497 5.7059 16.3859C5.82015 16.4221 5.89301 16.5094 5.87149 16.5901Z" fill="#191717"/>
<path d="M6.68962 16.6461C6.68962 16.7268 6.59689 16.7959 6.47767 16.7976C6.35844 16.7992 6.26074 16.7333 6.26074 16.6527C6.26074 16.572 6.35347 16.5028 6.47269 16.5012C6.59192 16.4995 6.68962 16.5638 6.68962 16.6461Z" fill="#191717"/>
<path d="M7.45166 16.5193C7.46656 16.6 7.38377 16.684 7.26454 16.7037C7.14532 16.7235 7.041 16.6757 7.02609 16.5967C7.01119 16.5177 7.0973 16.432 7.21321 16.4106C7.32912 16.3892 7.43676 16.4386 7.45166 16.5193Z" fill="#191717"/>
</g>
<defs>
<clipPath id="clip0_112_10199">
<rect width="20" height="20" fill="white"/>
</clipPath>
</defs>
</svg>
