<svg width="32" height="32" viewBox="0 0 32 32" fill="none" xmlns="http://www.w3.org/2000/svg">
<path d="M28 7H4C3.45333 7 3 6.54667 3 6C3 5.45333 3.45333 5 4 5H28C28.5467 5 29 5.45333 29 6C29 6.54667 28.5467 7 28 7Z" fill="#292D32"/>
<path d="M28 13.667H4C3.45333 13.667 3 13.2137 3 12.667C3 12.1203 3.45333 11.667 4 11.667H28C28.5467 11.667 29 12.1203 29 12.667C29 13.2137 28.5467 13.667 28 13.667Z" fill="#292D32"/>
<path d="M28 20.333H4C3.45333 20.333 3 19.8797 3 19.333C3 18.7863 3.45333 18.333 4 18.333H28C28.5467 18.333 29 18.7863 29 19.333C29 19.8797 28.5467 20.333 28 20.333Z" fill="#292D32"/>
</svg>
