<svg width="20" height="20" viewBox="0 0 20 20" fill="none" xmlns="http://www.w3.org/2000/svg">
<path d="M5.07148 19.9293C3.88207 19.8752 3.23595 19.6772 2.80619 19.5096C2.23675 19.2879 1.83077 19.024 1.40339 18.5972C0.976016 18.1704 0.711505 17.7644 0.49098 17.195C0.323357 16.7652 0.12542 16.1191 0.0713288 14.9297C0.0118881 13.644 0 13.2582 0 10.0009C0 6.74354 0.0130769 6.35837 0.0707344 5.07148C0.124825 3.88207 0.323952 3.23714 0.490385 2.80619C0.712099 2.23675 0.97661 1.83077 1.4028 1.4028C1.82958 0.976016 2.23556 0.71091 2.8056 0.490385C3.23536 0.322763 3.88147 0.124825 5.07088 0.0707344C6.35718 0.0118881 6.74354 0 9.9997 0C13.2571 0 13.6422 0.0130769 14.9291 0.0707344C16.1185 0.124825 16.7635 0.323952 17.1944 0.490385C17.7638 0.71091 18.1698 0.976016 18.5972 1.4028C19.0246 1.82958 19.2879 2.23616 19.5096 2.8056C19.6772 3.23536 19.8752 3.88147 19.9293 5.07088C19.9881 6.35777 20 6.74295 20 10.0003C20 13.2565 19.9881 13.6428 19.9293 14.9297C19.8752 16.1191 19.676 16.7652 19.5096 17.195C19.2879 17.7644 19.024 18.1704 18.5972 18.5972C18.1704 19.024 17.7638 19.2879 17.1944 19.5096C16.7646 19.6772 16.1185 19.8752 14.9291 19.9293C13.6434 19.9881 13.2571 20 9.9997 20C6.74354 20 6.35718 19.9887 5.07148 19.9293Z" fill="url(#paint0_radial_204_18250)"/>
<path d="M7.73058 9.92933C7.73058 8.71512 8.71463 7.73054 9.92884 7.73054C11.1431 7.73054 12.1276 8.71512 12.1276 9.92933C12.1276 11.1435 11.1431 12.1281 9.92884 12.1281C8.71463 12.1281 7.73058 11.1435 7.73058 9.92933ZM6.54196 9.92933C6.54196 11.7999 8.05826 13.3162 9.92884 13.3162C11.7994 13.3162 13.3157 11.7999 13.3157 9.92933C13.3157 8.05875 11.7994 6.54245 9.92884 6.54245C8.05826 6.54245 6.54201 8.05865 6.54201 9.92933M12.6584 6.40816C12.6583 6.5647 12.7047 6.71775 12.7916 6.84794C12.8785 6.97814 13.0021 7.07964 13.1467 7.1396C13.2913 7.19957 13.4504 7.21531 13.604 7.18483C13.7575 7.15435 13.8986 7.07902 14.0093 6.96837C14.12 6.85772 14.1955 6.71672 14.2261 6.5632C14.2567 6.40967 14.2411 6.25052 14.1812 6.10587C14.1214 5.96122 14.02 5.83756 13.8899 5.75054C13.7597 5.66352 13.6067 5.61704 13.4502 5.61697H13.4499C13.24 5.61707 13.0388 5.70045 12.8904 5.84879C12.742 5.99714 12.6585 6.19832 12.6584 6.40816ZM7.26412 15.2982C6.62106 15.2689 6.27153 15.1618 6.03925 15.0713C5.73131 14.9514 5.51158 14.8087 5.28057 14.578C5.04956 14.3473 4.90656 14.1278 4.7872 13.8198C4.69666 13.5876 4.58954 13.238 4.56031 12.5949C4.52833 11.8997 4.52195 11.6908 4.52195 9.92943C4.52195 8.16803 4.52886 7.95976 4.56031 7.26393C4.58959 6.62086 4.6975 6.27191 4.7872 6.03905C4.90709 5.73111 5.04988 5.51139 5.28057 5.28037C5.51127 5.04936 5.73078 4.90636 6.03925 4.78701C6.27143 4.69646 6.62106 4.58934 7.26412 4.56011C7.95938 4.52813 8.16823 4.52175 9.92884 4.52175C11.6895 4.52175 11.8985 4.52856 12.5943 4.56022C13.2374 4.5895 13.5864 4.69741 13.8192 4.78711C14.1272 4.90647 14.3469 5.04978 14.5779 5.28048C14.8089 5.51118 14.9514 5.73121 15.0713 6.03916C15.1618 6.27133 15.2689 6.62097 15.2982 7.26403C15.3301 7.95987 15.3365 8.16814 15.3365 9.92954C15.3365 11.6909 15.3301 11.8992 15.2982 12.595C15.2689 13.2381 15.1612 13.5876 15.0713 13.8199C14.9514 14.1279 14.8086 14.3476 14.5779 14.5781C14.3472 14.8086 14.1272 14.9516 13.8192 15.0714C13.587 15.162 13.2374 15.2691 12.5943 15.2983C11.8991 15.3303 11.6902 15.3367 9.92884 15.3367C8.16744 15.3367 7.95917 15.3303 7.26412 15.2983M7.20951 3.37344C6.50734 3.40542 6.02754 3.51675 5.60852 3.6798C5.17483 3.84818 4.8072 4.07408 4.44011 4.44059C4.07301 4.80711 3.84769 5.17479 3.67932 5.60901C3.51627 6.02829 3.40493 6.50783 3.37295 7.21C3.34045 7.91327 3.33301 8.13811 3.33301 9.92933C3.33301 11.7205 3.34045 11.9454 3.37295 12.6487C3.40493 13.3509 3.51627 13.8304 3.67932 14.2497C3.84769 14.6833 4.07306 15.0517 4.44011 15.4181C4.80715 15.7844 5.1743 16.01 5.60852 16.1789C6.02833 16.3419 6.50734 16.4532 7.20951 16.4852C7.91315 16.5172 8.13762 16.5252 9.92884 16.5252C11.7201 16.5252 11.9449 16.5177 12.6482 16.4852C13.3504 16.4532 13.8299 16.3419 14.2492 16.1789C14.6829 16.01 15.0505 15.7846 15.4176 15.4181C15.7847 15.0515 16.0095 14.6833 16.1784 14.2497C16.3414 13.8304 16.4533 13.3508 16.4847 12.6487C16.5167 11.9449 16.5241 11.7205 16.5241 9.92933C16.5241 8.13811 16.5167 7.91327 16.4847 7.21C16.4528 6.50778 16.3414 6.02803 16.1784 5.60901C16.0095 5.17532 15.7841 4.80769 15.4176 4.44059C15.0511 4.0735 14.6829 3.84818 14.2497 3.6798C13.8299 3.51675 13.3503 3.40489 12.6487 3.37344C11.9453 3.34131 11.7206 3.3335 9.92963 3.3335C8.13868 3.3335 7.91342 3.34094 7.20977 3.37344" fill="white"/>
<defs>
<radialGradient id="paint0_radial_204_18250" cx="0" cy="0" r="1" gradientUnits="userSpaceOnUse" gradientTransform="translate(1.29438 19.5619) scale(25.3926)">
<stop offset="0.09" stop-color="#FA8F21"/>
<stop offset="0.78" stop-color="#D82D7E"/>
</radialGradient>
</defs>
</svg>
