<svg width="20" height="21" viewBox="0 0 20 21" fill="none" xmlns="http://www.w3.org/2000/svg">
<path d="M16.7524 7.23983C15.8993 3.28158 12.6252 1.49951 9.74915 1.49951C9.74915 1.49951 9.74915 1.49951 9.74103 1.49951C6.8731 1.49951 3.59083 3.27301 2.73776 7.23126C1.7872 11.6522 4.35452 15.3962 6.67811 17.7523C7.5393 18.6262 8.64423 19.0632 9.74915 19.0632C10.8541 19.0632 11.959 18.6262 12.8121 17.7523C15.1357 15.3962 17.703 11.6607 16.7524 7.23983ZM9.74915 11.5322C8.3355 11.5322 7.18995 10.3242 7.18995 8.83341C7.18995 7.34264 8.3355 6.1346 9.74915 6.1346C11.1628 6.1346 12.3083 7.34264 12.3083 8.83341C12.3083 10.3242 11.1628 11.5322 9.74915 11.5322Z" fill="#2F3454"/>
</svg>
