<svg width="32" height="32" viewBox="0 0 32 32" fill="none" xmlns="http://www.w3.org/2000/svg">
<path d="M15.9203 2.94664L12.7069 10.4266H9.49359C8.96026 10.4266 8.44026 10.4666 7.93359 10.5733L9.26693 7.37331L9.32026 7.25331L9.40026 7.03998C9.44026 6.94665 9.46693 6.86664 9.50693 6.79998C11.0536 3.21331 12.7869 2.09331 15.9203 2.94664Z" fill="#2F3454"/>
<path d="M24.9735 10.7867L24.9468 10.7733C24.1468 10.5467 23.3335 10.4267 22.5068 10.4267H14.1602L17.1602 3.45332L17.2002 3.35999C17.3868 3.42665 17.5868 3.51999 17.7868 3.58665L20.7335 4.82665C22.3735 5.50665 23.5202 6.21332 24.2268 7.06665C24.3468 7.22665 24.4535 7.37332 24.5602 7.54665C24.6802 7.73332 24.7735 7.91999 24.8268 8.11999C24.8802 8.23999 24.9202 8.34665 24.9468 8.46665C25.1468 9.14665 25.1602 9.91999 24.9735 10.7867Z" fill="#2F3454"/>
<path d="M16.6934 23.5466H17.0267C17.4267 23.5466 17.76 23.1866 17.76 22.7466C17.76 22.1866 17.6 22.1066 17.2534 21.9733L16.6934 21.7733V23.5466Z" fill="#2F3454"/>
<path d="M24.3863 12.6933C23.7863 12.52 23.1597 12.4266 22.5063 12.4266H9.49299C8.58633 12.4266 7.73299 12.6 6.93299 12.9466C4.61299 13.9466 2.98633 16.2533 2.98633 18.9333V21.5333C2.98633 21.8533 3.01299 22.16 3.05299 22.48C3.34633 26.72 5.61299 28.9866 9.85299 29.2666C10.1597 29.3066 10.4663 29.3333 10.7997 29.3333H21.1997C26.133 29.3333 28.733 26.9866 28.9863 22.32C28.9997 22.0666 29.013 21.8 29.013 21.5333V18.9333C29.013 15.9866 27.053 13.5066 24.3863 12.6933ZM17.7063 20.6666C18.3197 20.88 19.1463 21.3333 19.1463 22.7466C19.1463 23.96 18.1997 24.9333 17.0263 24.9333H16.693V25.2266C16.693 25.6133 16.3863 25.92 15.9997 25.92C15.613 25.92 15.3063 25.6133 15.3063 25.2266V24.9333H15.1863C13.9063 24.9333 12.853 23.8533 12.853 22.52C12.853 22.1333 13.1597 21.8266 13.5463 21.8266C13.933 21.8266 14.2397 22.1333 14.2397 22.52C14.2397 23.08 14.6663 23.5466 15.1863 23.5466H15.3063V21.2933L14.293 20.9333C13.6797 20.72 12.853 20.2666 12.853 18.8533C12.853 17.64 13.7997 16.6666 14.973 16.6666H15.3063V16.3733C15.3063 15.9866 15.613 15.68 15.9997 15.68C16.3863 15.68 16.693 15.9866 16.693 16.3733V16.6666H16.813C18.093 16.6666 19.1463 17.7466 19.1463 19.08C19.1463 19.4666 18.8397 19.7733 18.453 19.7733C18.0663 19.7733 17.7597 19.4666 17.7597 19.08C17.7597 18.52 17.333 18.0533 16.813 18.0533H16.693V20.3066L17.7063 20.6666Z" fill="#2F3454"/>
<path d="M14.2402 18.8533C14.2402 19.4133 14.4002 19.4933 14.7469 19.6267L15.3069 19.8267V18.0533H14.9736C14.5602 18.0533 14.2402 18.4133 14.2402 18.8533Z" fill="#2F3454"/>
</svg>
