<svg width="87" height="85" viewBox="0 0 87 85" fill="none" xmlns="http://www.w3.org/2000/svg">
<path fill-rule="evenodd" clip-rule="evenodd" d="M41.1562 0C18.2361 1.10908 0 19.7011 0 42.4738C0 65.2466 18.2361 83.8386 41.1562 84.9476V0ZM42.2947 84.9882C42.637 84.9961 42.9803 85 43.3246 85V84.9882H42.2947ZM43.3249 84.9882V85C43.6688 85 44.0118 84.996 44.3538 84.9882H43.3249ZM49.8212 84.5251C70.6672 81.4484 86.6498 63.7932 86.6498 42.4738C86.6498 21.1544 70.6672 3.49919 49.8212 0.422488V13.3972C63.4499 16.3158 73.6543 28.2289 73.6543 42.4814C73.6543 56.734 63.4499 68.6471 49.8212 71.5656V84.5251Z" fill="currentColor"/>
</svg>
