<svg width="20" height="20" viewBox="0 0 20 20" fill="none" xmlns="http://www.w3.org/2000/svg">
<path d="M17.0837 13.3333V15.4167C17.0837 17.025 15.7753 18.3333 14.167 18.3333H5.83366C4.22533 18.3333 2.91699 17.025 2.91699 15.4167V14.875C2.91699 13.5667 3.98366 12.5 5.29199 12.5H16.2503C16.7087 12.5 17.0837 12.875 17.0837 13.3333Z" fill="#2F3454"/>
<path d="M12.917 1.66666H7.08366C3.75033 1.66666 2.91699 2.49999 2.91699 5.83332V12.15C3.55033 11.5917 4.38366 11.25 5.29199 11.25H16.2503C16.7087 11.25 17.0837 10.875 17.0837 10.4167V5.83332C17.0837 2.49999 16.2503 1.66666 12.917 1.66666ZM10.8337 8.95832H6.66699C6.32533 8.95832 6.04199 8.67499 6.04199 8.33332C6.04199 7.99166 6.32533 7.70832 6.66699 7.70832H10.8337C11.1753 7.70832 11.4587 7.99166 11.4587 8.33332C11.4587 8.67499 11.1753 8.95832 10.8337 8.95832ZM13.3337 6.04166H6.66699C6.32533 6.04166 6.04199 5.75832 6.04199 5.41666C6.04199 5.07499 6.32533 4.79166 6.66699 4.79166H13.3337C13.6753 4.79166 13.9587 5.07499 13.9587 5.41666C13.9587 5.75832 13.6753 6.04166 13.3337 6.04166Z" fill="#2F3454"/>
</svg>
