<svg width="20" height="20" viewBox="0 0 20 20" fill="none" xmlns="http://www.w3.org/2000/svg">
<path d="M10.625 13.2667H11.1667C11.7083 13.2667 12.1583 12.7833 12.1583 12.2C12.1583 11.475 11.9 11.3333 11.475 11.1833L10.6333 10.8917V13.2667H10.625Z" fill="#2F3454"/>
<path d="M9.97538 1.58333C5.37538 1.59999 1.65038 5.34166 1.66705 9.94166C1.68371 14.5417 5.42538 18.2667 10.0254 18.25C14.6254 18.2333 18.3504 14.4917 18.3337 9.89166C18.317 5.29166 14.5754 1.57499 9.97538 1.58333ZM11.8837 9.99999C12.5337 10.225 13.4087 10.7083 13.4087 12.2C13.4087 13.4833 12.4004 14.5167 11.167 14.5167H10.6254V15C10.6254 15.3417 10.342 15.625 10.0004 15.625C9.65871 15.625 9.37538 15.3417 9.37538 15V14.5167H9.07538C7.70871 14.5167 6.60038 13.3667 6.60038 11.95C6.60038 11.6083 6.88371 11.325 7.22538 11.325C7.56705 11.325 7.85038 11.6083 7.85038 11.95C7.85038 12.675 8.40038 13.2667 9.07538 13.2667H9.37538V10.45L8.11705 9.99999C7.46705 9.77499 6.59205 9.29166 6.59205 7.79999C6.59205 6.51666 7.60038 5.48333 8.83371 5.48333H9.37538V4.99999C9.37538 4.65833 9.65871 4.37499 10.0004 4.37499C10.342 4.37499 10.6254 4.65833 10.6254 4.99999V5.48333H10.9254C12.292 5.48333 13.4004 6.63333 13.4004 8.04999C13.4004 8.39166 13.117 8.67499 12.7754 8.67499C12.4337 8.67499 12.1504 8.39166 12.1504 8.04999C12.1504 7.32499 11.6004 6.73333 10.9254 6.73333H10.6254V9.54999L11.8837 9.99999Z" fill="#2F3454"/>
<path d="M7.84961 7.80834C7.84961 8.53334 8.10794 8.675 8.53294 8.825L9.37461 9.11667V6.73334H8.83294C8.29128 6.73334 7.84961 7.21667 7.84961 7.80834Z" fill="#2F3454"/>
</svg>
