<svg width="22" height="23" viewBox="0 0 22 23" fill="none" xmlns="http://www.w3.org/2000/svg">
<path d="M11.4119 4.79341L12.5163 7.06752C12.6676 7.37966 13.0701 7.68576 13.4106 7.73772L15.4361 8.07397C16.7331 8.28639 17.0247 9.24175 16.0895 10.1965L14.4968 11.8137C14.2308 12.0848 14.0742 12.6148 14.1582 12.9857L14.5943 14.9751C14.9371 16.5458 14.1134 17.1611 12.7564 16.3456L10.8608 15.2063C10.5156 14.998 9.95112 15.0056 9.60761 15.2123L7.69632 16.365C6.32817 17.1888 5.51148 16.5829 5.87808 15.0103L6.34641 13.0201C6.43386 12.6481 6.29196 12.1192 6.02885 11.8519L4.45018 10.2478C3.52921 9.30456 3.83473 8.34688 5.13274 8.12019L7.15941 7.76772C7.50159 7.70536 7.90906 7.40384 8.06216 7.08739L9.20105 4.79845C9.82271 3.5655 10.8158 3.56268 11.4119 4.79341Z" fill="#E8D97E"/>
</svg>
