<svg width="22" height="22" viewBox="0 0 22 22" fill="none" xmlns="http://www.w3.org/2000/svg">
<path d="M11.411 4.57295L12.5153 6.84706C12.6666 7.1592 13.0691 7.4653 13.4096 7.51727L15.4351 7.85352C16.7322 8.06593 17.0237 9.02129 16.0886 9.97607L14.4958 11.5932C14.2299 11.8643 14.0732 12.3944 14.1572 12.7653L14.5934 14.7547C14.9361 16.3253 14.1124 16.9406 12.7555 16.1251L10.8598 14.9858C10.5146 14.7776 9.95014 14.7851 9.60663 14.9919L7.69535 16.1445C6.32719 16.9684 5.51051 16.3625 5.87711 14.7898L6.34543 12.7997C6.43289 12.4277 6.29098 11.8988 6.02787 11.6314L4.44921 10.0273C3.52824 9.0841 3.83376 8.12642 5.13176 7.89973L7.15844 7.54726C7.50061 7.4849 7.90808 7.18338 8.06119 6.86693L9.20008 4.57799C9.82173 3.34504 10.8148 3.34222 11.411 4.57295Z" fill="#FF5757"/>
</svg>
