<svg width="24" height="24" viewBox="0 0 24 24" fill="none" xmlns="http://www.w3.org/2000/svg">
<path d="M16.5 9C16.5 12.5579 13.399 15.5 9.5 15.5C5.60096 15.5 2.5 12.5579 2.5 9C2.5 5.44208 5.60096 2.5 9.5 2.5C13.399 2.5 16.5 5.44208 16.5 9Z" stroke="black"/>
<path d="M18.1367 18C17.9155 18 17.6943 17.9139 17.5346 17.754L15.2488 15.4666C14.9171 15.1345 14.9171 14.5934 15.2488 14.249C15.5806 13.917 16.1214 13.917 16.4654 14.249L18.7512 16.5365C19.0829 16.8686 19.0829 17.4097 18.7512 17.754C18.5791 17.9139 18.3579 18 18.1367 18Z" fill="#292D32"/>
</svg>
