<svg width="20" height="20" viewBox="0 0 20 20" fill="none" xmlns="http://www.w3.org/2000/svg">
<path d="M14.4925 13.0583L11.1259 10H8.86754L5.50088 13.0583C4.55921 13.9083 4.25088 15.2167 4.70921 16.4C5.16754 17.575 6.28421 18.3333 7.54254 18.3333H12.4509C13.7175 18.3333 14.8259 17.575 15.2842 16.4C15.7425 15.2167 15.4342 13.9083 14.4925 13.0583ZM11.5175 15.1167H8.48421C8.16754 15.1167 7.91754 14.8583 7.91754 14.55C7.91754 14.2417 8.17588 13.9833 8.48421 13.9833H11.5175C11.8342 13.9833 12.0842 14.2417 12.0842 14.55C12.0842 14.8583 11.8259 15.1167 11.5175 15.1167Z" fill="#2F3454"/>
<path d="M15.2909 3.60002C14.8326 2.42502 13.7159 1.66669 12.4576 1.66669H7.54091C6.28257 1.66669 5.16591 2.42502 4.70757 3.60002C4.25757 4.78335 4.56591 6.09169 5.50757 6.94169L8.87424 10H11.1326L14.4992 6.94169C15.4326 6.09169 15.7409 4.78335 15.2909 3.60002ZM11.5159 6.02502H8.48257C8.16591 6.02502 7.9159 5.76669 7.9159 5.45835C7.9159 5.15002 8.17424 4.89169 8.48257 4.89169H11.5159C11.8326 4.89169 12.0826 5.15002 12.0826 5.45835C12.0826 5.76669 11.8242 6.02502 11.5159 6.02502Z" fill="#2F3454"/>
</svg>
