<?xml version="1.0" encoding="UTF-8"?>
<svg id="Layer_1" data-name="Layer 1" xmlns="http://www.w3.org/2000/svg" xmlns:xlink="http://www.w3.org/1999/xlink" viewBox="0 0 26.67 26.67">
  <defs>
    <style>
      .cls-1 {
        fill: url(#linear-gradient);
      }

      .cls-2 {
        fill: url(#linear-gradient-3);
      }

      .cls-3 {
        fill: url(#linear-gradient-2);
      }
    </style>
    <linearGradient id="linear-gradient" x1="14.11" y1="13.74" x2="15.36" y2="11.98" gradientTransform="translate(0 28.67) scale(1 -1)" gradientUnits="userSpaceOnUse">
      <stop offset="0" stop-color="#4a4ab0"/>
      <stop offset=".15" stop-color="#6363d0"/>
      <stop offset=".36" stop-color="#8989ff"/>
      <stop offset=".56" stop-color="#998dec"/>
      <stop offset=".83" stop-color="#d89d9f"/>
      <stop offset="1" stop-color="#f1a382"/>
      <stop offset="1" stop-color="#ffa771"/>
      <stop offset="1" stop-color="#f8f8f8"/>
    </linearGradient>
    <linearGradient id="linear-gradient-2" x1="6.79" y1="31.27" x2="19.57" y2=".16" gradientTransform="translate(0 28.67) scale(1 -1)" gradientUnits="userSpaceOnUse">
      <stop offset="0" stop-color="#4a4ab0"/>
      <stop offset=".15" stop-color="#6363d0"/>
      <stop offset=".36" stop-color="#8989ff"/>
      <stop offset=".56" stop-color="#998dec"/>
      <stop offset=".83" stop-color="#d89d9f"/>
      <stop offset="1" stop-color="#f1a382"/>
      <stop offset="1" stop-color="#ffa771"/>
      <stop offset="1" stop-color="#f8f8f8"/>
    </linearGradient>
    <linearGradient id="linear-gradient-3" x1="11.29" y1="18.72" x2="12.54" y2="16.97" gradientTransform="translate(0 28.67) scale(1 -1)" gradientUnits="userSpaceOnUse">
      <stop offset="0" stop-color="#4a4ab0"/>
      <stop offset=".15" stop-color="#6363d0"/>
      <stop offset=".36" stop-color="#8989ff"/>
      <stop offset=".56" stop-color="#998dec"/>
      <stop offset=".83" stop-color="#d89d9f"/>
      <stop offset="1" stop-color="#f1a382"/>
      <stop offset="1" stop-color="#ffa771"/>
      <stop offset="1" stop-color="#f8f8f8"/>
    </linearGradient>
  </defs>
  <path class="cls-1" d="M14.33,16.69h.31c.44,0,.81-.4,.81-.89,0-.63-.15-.71-.57-.85l-.55-.19v1.93Z"/>
  <path class="cls-3" d="M13.33,0C5.97,0,0,5.97,0,13.33s5.97,13.33,13.33,13.33,13.33-5.97,13.33-13.33S20.69,0,13.33,0ZM7.44,19.23c.39,.39,.39,1.03,0,1.41-.2,.2-.45,.29-.71,.29s-.51-.09-.71-.29c-1.95-1.95-3.03-4.55-3.03-7.31s1.08-5.36,3.03-7.31c.39-.39,1.03-.39,1.41,0,.39,.39,.39,1.03,0,1.41-1.57,1.57-2.44,3.67-2.44,5.89s.87,4.32,2.44,5.89Zm8.09-6.19c1.28,.45,1.91,1.35,1.91,2.75,0,1.6-1.25,2.89-2.81,2.89h-.31v.24c0,.55-.45,1-1,1s-1-.45-1-1v-.24h-.04c-1.69,0-3.08-1.43-3.08-3.17,0-.55,.45-1,1-1s1,.45,1,1c0,.65,.48,1.17,1.08,1.17h.04v-2.64l-1.2-.43c-1.28-.45-1.91-1.35-1.91-2.75,0-1.6,1.25-2.89,2.81-2.89h.31v-.24c0-.55,.45-1,1-1s1,.45,1,1v.24h.04c1.69,0,3.08,1.43,3.08,3.17,0,.55-.45,1-1,1s-1-.45-1-1c0-.65-.48-1.17-1.08-1.17h-.04v2.64l1.2,.43Zm5.11,7.6c-.2,.2-.45,.29-.71,.29s-.51-.09-.71-.29c-.39-.39-.39-1.03,0-1.41,1.57-1.57,2.44-3.67,2.44-5.89s-.87-4.32-2.44-5.89c-.39-.39-.39-1.03,0-1.41s1.03-.39,1.41,0c1.95,1.95,3.03,4.55,3.03,7.31s-1.08,5.36-3.03,7.31Z"/>
  <path class="cls-2" d="M11.23,10.88c0,.63,.15,.71,.57,.85l.55,.19v-1.95h-.31c-.45,0-.81,.41-.81,.91Z"/>
</svg>