<svg width="20" height="20" viewBox="0 0 20 20" fill="none" xmlns="http://www.w3.org/2000/svg">
<path d="M14.0003 7.5H10.6253V12.7083C10.6253 13.05 10.342 13.3333 10.0003 13.3333C9.65866 13.3333 9.37533 13.05 9.37533 12.7083V7.5H6.00033C3.33366 7.5 1.66699 9.16667 1.66699 11.8333V13.9917C1.66699 16.6667 3.33366 18.3333 6.00033 18.3333H13.992C16.6587 18.3333 18.3253 16.6667 18.3253 14V11.8333C18.3337 9.16667 16.667 7.5 14.0003 7.5Z" fill="#2F3454"/>
<path d="M10.6245 3.79995L12.3495 5.52495C12.4745 5.64995 12.6329 5.70828 12.7912 5.70828C12.9495 5.70828 13.1079 5.64995 13.2329 5.52495C13.4745 5.28328 13.4745 4.88328 13.2329 4.64162L10.4412 1.84995C10.1995 1.60828 9.79954 1.60828 9.55788 1.84995L6.76621 4.64162C6.52454 4.88328 6.52454 5.28328 6.76621 5.52495C7.00788 5.76662 7.40788 5.76662 7.64954 5.52495L9.37454 3.79995V7.49995H10.6245V3.79995Z" fill="#2F3454"/>
</svg>
