<svg width="32" height="32" viewBox="0 0 32 32" fill="none" xmlns="http://www.w3.org/2000/svg">
<path d="M21.587 2.66669H10.4137C5.56033 2.66669 2.66699 5.56002 2.66699 10.4134V21.5867C2.66699 25.3334 4.38699 27.9067 7.41366 28.88C8.29366 29.1867 9.30699 29.3334 10.4137 29.3334H21.587C22.6937 29.3334 23.707 29.1867 24.587 28.88C27.6137 27.9067 29.3337 25.3334 29.3337 21.5867V10.4134C29.3337 5.56002 26.4403 2.66669 21.587 2.66669ZM27.3337 21.5867C27.3337 24.44 26.2137 26.24 23.9603 26.9867C22.667 24.44 19.6003 22.6267 16.0003 22.6267C12.4003 22.6267 9.34699 24.4267 8.04033 26.9867H8.02699C5.80033 26.2667 4.66699 24.4534 4.66699 21.6V10.4134C4.66699 6.65335 6.65366 4.66669 10.4137 4.66669H21.587C25.347 4.66669 27.3337 6.65335 27.3337 10.4134V21.5867Z" fill="#2F3454"/>
<path d="M15.9999 10.6667C13.3599 10.6667 11.2266 12.8 11.2266 15.44C11.2266 18.08 13.3599 20.2267 15.9999 20.2267C18.6399 20.2267 20.7732 18.08 20.7732 15.44C20.7732 12.8 18.6399 10.6667 15.9999 10.6667Z" fill="#2F3454"/>
</svg>
