<svg width="10" height="8" viewBox="0 0 10 8" fill="none" xmlns="http://www.w3.org/2000/svg">
<path d="M1.60104 3.39896C1.2691 3.06701 0.730905 3.06701 0.398959 3.39896C0.0670136 3.73091 0.0670136 4.2691 0.398959 4.60104L1.60104 3.39896ZM4 7L3.39896 7.60104C3.56783 7.76991 3.79995 7.85995 4.03852 7.84913C4.27709 7.8383 4.5001 7.72762 4.65299 7.54416L4 7ZM9.65299 1.54416C9.95352 1.18352 9.90479 0.647541 9.54416 0.347012C9.18352 0.0464824 8.64754 0.0952079 8.34701 0.455843L9.65299 1.54416ZM0.398959 4.60104L3.39896 7.60104L4.60104 6.39896L1.60104 3.39896L0.398959 4.60104ZM4.65299 7.54416L9.65299 1.54416L8.34701 0.455843L3.34701 6.45584L4.65299 7.54416Z" fill="#F9F9F9"/>
</svg>
