<svg width="42" height="38" viewBox="0 0 42 38" fill="none" xmlns="http://www.w3.org/2000/svg">
<path fill-rule="evenodd" clip-rule="evenodd" d="M19.7209 0C8.73831 0.495352 0 8.80723 0 18.9883C0 29.1693 8.73831 37.4812 19.7209 37.9765V0ZM20.6708 37.9997C20.7002 37.9998 20.7296 37.9999 20.759 37.9999C20.7884 37.9999 20.8178 37.9998 20.8472 37.9997H20.6708ZM23.8727 37.7874C33.8605 36.4116 41.518 28.5189 41.518 18.9883C41.518 9.45761 33.8605 1.56494 23.8727 0.189077V5.98695C30.4019 7.29233 35.2904 12.6178 35.2904 18.9889C35.2904 25.36 30.4019 30.6854 23.8727 31.9908V37.7874Z" fill="#2F3454"/>
</svg>
