<svg width="16" height="16" viewBox="0 0 16 16" fill="none" xmlns="http://www.w3.org/2000/svg">
<path d="M8.00065 1.33331C4.32732 1.33331 1.33398 4.32665 1.33398 7.99998C1.33398 11.6733 4.32732 14.6666 8.00065 14.6666C11.674 14.6666 14.6673 11.6733 14.6673 7.99998C14.6673 4.32665 11.674 1.33331 8.00065 1.33331ZM10.9007 10.38C10.8073 10.54 10.6407 10.6266 10.4673 10.6266C10.3807 10.6266 10.294 10.6066 10.214 10.5533L8.14732 9.31998C7.63398 9.01331 7.25398 8.33998 7.25398 7.74665V5.01331C7.25398 4.73998 7.48065 4.51331 7.75398 4.51331C8.02732 4.51331 8.25398 4.73998 8.25398 5.01331V7.74665C8.25398 7.98665 8.45398 8.33998 8.66065 8.45998L10.7273 9.69331C10.9673 9.83331 11.0473 10.14 10.9007 10.38Z" fill="#292D32"/>
</svg>
