<svg width="16" height="16" viewBox="0 0 16 16" fill="none" xmlns="http://www.w3.org/2000/svg">
<path d="M8.5 9.67998H8.65334C8.87334 9.67998 9.06 9.47998 9.06 9.23332C9.06 8.91998 8.98667 8.87998 8.77334 8.80665L8.5 8.71332V9.67998Z" fill="url(#paint0_linear_4001_7076)"/>
<path d="M8.00065 1.33331C4.32065 1.33331 1.33398 4.31998 1.33398 7.99998C1.33398 11.68 4.32065 14.6666 8.00065 14.6666C11.6807 14.6666 14.6673 11.68 14.6673 7.99998C14.6673 4.31998 11.6807 1.33331 8.00065 1.33331ZM5.05398 10.9466C5.24731 11.14 5.24731 11.46 5.05398 11.6533C4.95398 11.7533 4.82731 11.8 4.70064 11.8C4.57398 11.8 4.44731 11.7533 4.34731 11.6533C3.37398 10.68 2.83398 9.37998 2.83398 7.99998C2.83398 6.61998 3.37398 5.31998 4.34731 4.34664C4.54064 4.15331 4.86064 4.15331 5.05398 4.34664C5.24731 4.53998 5.24731 4.85998 5.05398 5.05331C4.26731 5.83998 3.83398 6.88665 3.83398 7.99998C3.83398 9.11331 4.26731 10.16 5.05398 10.9466ZM9.10065 7.85331C9.74065 8.07998 10.054 8.52664 10.054 9.22664C10.054 10.0266 9.42732 10.6733 8.64732 10.6733H8.49398V10.7933C8.49398 11.0666 8.26731 11.2933 7.99398 11.2933C7.72064 11.2933 7.49398 11.0666 7.49398 10.7933V10.6733H7.47398C6.62731 10.6733 5.93398 9.95998 5.93398 9.08664C5.93398 8.81331 6.16065 8.58664 6.43398 8.58664C6.70731 8.58664 6.93398 8.81331 6.93398 9.08664C6.93398 9.41331 7.17398 9.67331 7.47398 9.67331H7.49398V8.35331L6.89398 8.13998C6.25398 7.91331 5.94065 7.46665 5.94065 6.76665C5.94065 5.96665 6.56731 5.31998 7.34731 5.31998H7.50065V5.19998C7.50065 4.92665 7.72732 4.69998 8.00065 4.69998C8.27398 4.69998 8.50065 4.92665 8.50065 5.19998V5.31998H8.52065C9.36732 5.31998 10.0606 6.03331 10.0606 6.90665C10.0606 7.17998 9.83398 7.40665 9.56065 7.40665C9.28731 7.40665 9.06065 7.17998 9.06065 6.90665C9.06065 6.57998 8.82065 6.31998 8.52065 6.31998H8.50065V7.63998L9.10065 7.85331ZM11.654 11.6533C11.554 11.7533 11.4273 11.8 11.3007 11.8C11.174 11.8 11.0473 11.7533 10.9473 11.6533C10.754 11.46 10.754 11.14 10.9473 10.9466C11.734 10.16 12.1673 9.11331 12.1673 7.99998C12.1673 6.88665 11.734 5.83998 10.9473 5.05331C10.754 4.85998 10.754 4.53998 10.9473 4.34664C11.1407 4.15331 11.4607 4.15331 11.654 4.34664C12.6273 5.31998 13.1673 6.61998 13.1673 7.99998C13.1673 9.37998 12.6273 10.68 11.654 11.6533Z" fill="url(#paint1_linear_4001_7076)"/>
<path d="M6.94727 6.77334C6.94727 7.08667 7.02059 7.12667 7.23393 7.20001L7.50726 7.29334V6.32001H7.35392C7.12726 6.32001 6.94727 6.52667 6.94727 6.77334Z" fill="url(#paint2_linear_4001_7076)"/>
<defs>
<linearGradient id="paint0_linear_4001_7076" x1="8.65167" y1="8.61262" x2="9.27353" y2="9.48976" gradientUnits="userSpaceOnUse">
<stop stop-color="#4A4AB0"/>
<stop offset="0.145833" stop-color="#6363D0"/>
<stop offset="0.364583" stop-color="#8989FF"/>
<stop offset="0.557292" stop-color="#998DEC"/>
<stop offset="0.833333" stop-color="#D89D9F"/>
<stop offset="0.9998" stop-color="#F1A382"/>
<stop offset="0.9999" stop-color="#FFA771"/>
<stop offset="1" stop-color="#F8F8F8"/>
</linearGradient>
<linearGradient id="paint1_linear_4001_7076" x1="4.94509" y1="-0.0555756" x2="11.334" y2="15.5" gradientUnits="userSpaceOnUse">
<stop stop-color="#4A4AB0"/>
<stop offset="0.145833" stop-color="#6363D0"/>
<stop offset="0.364583" stop-color="#8989FF"/>
<stop offset="0.557292" stop-color="#998DEC"/>
<stop offset="0.833333" stop-color="#D89D9F"/>
<stop offset="0.9998" stop-color="#F1A382"/>
<stop offset="0.9999" stop-color="#FFA771"/>
<stop offset="1" stop-color="#F8F8F8"/>
</linearGradient>
<linearGradient id="paint2_linear_4001_7076" x1="7.09893" y1="6.21862" x2="7.7265" y2="7.09773" gradientUnits="userSpaceOnUse">
<stop stop-color="#4A4AB0"/>
<stop offset="0.145833" stop-color="#6363D0"/>
<stop offset="0.364583" stop-color="#8989FF"/>
<stop offset="0.557292" stop-color="#998DEC"/>
<stop offset="0.833333" stop-color="#D89D9F"/>
<stop offset="0.9998" stop-color="#F1A382"/>
<stop offset="0.9999" stop-color="#FFA771"/>
<stop offset="1" stop-color="#F8F8F8"/>
</linearGradient>
</defs>
</svg>
