<svg width="16" height="16" viewBox="0 0 16 16" fill="none" xmlns="http://www.w3.org/2000/svg">
<path d="M11.334 2.33325H4.66732C2.66732 2.33325 1.33398 3.33325 1.33398 5.66658V10.3333C1.33398 12.6666 2.66732 13.6666 4.66732 13.6666H11.334C13.334 13.6666 14.6673 12.6666 14.6673 10.3333V5.66658C14.6673 3.33325 13.334 2.33325 11.334 2.33325ZM11.6473 6.39325L9.56065 8.05992C9.12065 8.41325 8.56065 8.58659 8.00065 8.58659C7.44065 8.58659 6.87398 8.41325 6.44065 8.05992L4.35398 6.39325C4.14065 6.21992 4.10732 5.89992 4.27398 5.68658C4.44732 5.47325 4.76065 5.43325 4.97398 5.60659L7.06065 7.27325C7.56732 7.67992 8.42732 7.67992 8.93398 7.27325L11.0207 5.60659C11.234 5.43325 11.554 5.46658 11.7207 5.68658C11.894 5.89992 11.8607 6.21992 11.6473 6.39325Z" fill="#2F3454"/>
</svg>
