<svg width="32" height="32" viewBox="0 0 32 32" fill="none" xmlns="http://www.w3.org/2000/svg">
<path d="M17 19.3591H17.3067C17.7467 19.3591 18.12 18.9591 18.12 18.4658C18.12 17.8391 17.9733 17.7591 17.5467 17.6124L17 17.4258V19.3591Z" fill="#2F3454"/>
<path d="M16.0013 2.66797C8.6413 2.66797 2.66797 8.6413 2.66797 16.0013C2.66797 23.3613 8.6413 29.3346 16.0013 29.3346C23.3613 29.3346 29.3346 23.3613 29.3346 16.0013C29.3346 8.6413 23.3613 2.66797 16.0013 2.66797ZM10.108 21.8946C10.4946 22.2813 10.4946 22.9213 10.108 23.308C9.90795 23.508 9.65462 23.6013 9.40129 23.6013C9.14795 23.6013 8.89462 23.508 8.69462 23.308C6.74795 21.3613 5.66797 18.7613 5.66797 16.0013C5.66797 13.2413 6.74795 10.6413 8.69462 8.69463C9.08129 8.30796 9.72128 8.30796 10.108 8.69463C10.4946 9.0813 10.4946 9.7213 10.108 10.108C8.53462 11.6813 7.66797 13.7746 7.66797 16.0013C7.66797 18.228 8.53462 20.3213 10.108 21.8946ZM18.2013 15.708C19.4813 16.1613 20.108 17.0546 20.108 18.4546C20.108 20.0546 18.8546 21.348 17.2946 21.348H16.988V21.588C16.988 22.1346 16.5346 22.588 15.988 22.588C15.4413 22.588 14.988 22.1346 14.988 21.588V21.348H14.948C13.2546 21.348 11.868 19.9213 11.868 18.1746C11.868 17.628 12.3213 17.1746 12.868 17.1746C13.4146 17.1746 13.868 17.628 13.868 18.1746C13.868 18.828 14.348 19.348 14.948 19.348H14.988V16.708L13.788 16.2813C12.508 15.828 11.8813 14.9346 11.8813 13.5346C11.8813 11.9346 13.1346 10.6413 14.6946 10.6413H15.0013V10.4013C15.0013 9.85464 15.4546 9.40131 16.0013 9.40131C16.548 9.40131 17.0013 9.85464 17.0013 10.4013V10.6413H17.0413C18.7346 10.6413 20.1213 12.068 20.1213 13.8146C20.1213 14.3613 19.668 14.8146 19.1213 14.8146C18.5746 14.8146 18.1213 14.3613 18.1213 13.8146C18.1213 13.1613 17.6413 12.6413 17.0413 12.6413H17.0013V15.2813L18.2013 15.708ZM23.308 23.308C23.108 23.508 22.8547 23.6013 22.6013 23.6013C22.348 23.6013 22.0947 23.508 21.8947 23.308C21.508 22.9213 21.508 22.2813 21.8947 21.8946C23.468 20.3213 24.3346 18.228 24.3346 16.0013C24.3346 13.7746 23.468 11.6813 21.8947 10.108C21.508 9.7213 21.508 9.0813 21.8947 8.69463C22.2813 8.30796 22.9213 8.30796 23.308 8.69463C25.2546 10.6413 26.3346 13.2413 26.3346 16.0013C26.3346 18.7613 25.2546 21.3613 23.308 23.308Z" fill="#2F3454"/>
<path d="M13.8945 13.5473C13.8945 14.174 14.0412 14.254 14.4679 14.4006L15.0145 14.5873V12.6406H14.7078C14.2545 12.6406 13.8945 13.054 13.8945 13.5473Z" fill="#2F3454"/>
</svg>
