<svg width="16" height="16" viewBox="0 0 16 16" fill="none" xmlns="http://www.w3.org/2000/svg">
<path d="M2.87367 9.54038C2.61983 9.79422 2.61983 10.2058 2.87367 10.4596C3.12751 10.7135 3.53907 10.7135 3.79291 10.4596L2.87367 9.54038ZM7.99996 5.33333L8.45958 4.87371C8.33768 4.75182 8.17235 4.68333 7.99996 4.68333C7.82757 4.68333 7.66224 4.75182 7.54034 4.87371L7.99996 5.33333ZM12.207 10.4596C12.4608 10.7135 12.8724 10.7135 13.1262 10.4596C13.3801 10.2058 13.3801 9.79422 13.1262 9.54038L12.207 10.4596ZM3.79291 10.4596L8.45958 5.79295L7.54034 4.87371L2.87367 9.54038L3.79291 10.4596ZM7.54034 5.79295L12.207 10.4596L13.1262 9.54038L8.45958 4.87371L7.54034 5.79295Z" fill="#161719"/>
</svg>
