<svg width="25" height="25" viewBox="0 0 25 25" fill="none" xmlns="http://www.w3.org/2000/svg">
<path d="M12.5 2.08398C6.76041 2.08398 2.08333 6.76107 2.08333 12.5007C2.08333 18.2402 6.76041 22.9173 12.5 22.9173C18.2396 22.9173 22.9167 18.2402 22.9167 12.5007C22.9167 6.76107 18.2396 2.08398 12.5 2.08398ZM16.6667 13.2819H13.2812V16.6673C13.2812 17.0944 12.9271 17.4486 12.5 17.4486C12.0729 17.4486 11.7187 17.0944 11.7187 16.6673V13.2819H8.33333C7.90625 13.2819 7.55208 12.9277 7.55208 12.5007C7.55208 12.0736 7.90625 11.7194 8.33333 11.7194H11.7187V8.33398C11.7187 7.9069 12.0729 7.55273 12.5 7.55273C12.9271 7.55273 13.2812 7.9069 13.2812 8.33398V11.7194H16.6667C17.0937 11.7194 17.4479 12.0736 17.4479 12.5007C17.4479 12.9277 17.0937 13.2819 16.6667 13.2819Z" fill="#2F3454"/>
</svg>
