<svg width="24" height="25" viewBox="0 0 24 25" fill="none" xmlns="http://www.w3.org/2000/svg">
<path d="M12 2.00391C6.49 2.00391 2 6.49391 2 12.0039C2 17.5139 6.49 22.0039 12 22.0039C17.51 22.0039 22 17.5139 22 12.0039C22 6.49391 17.51 2.00391 12 2.00391ZM13.79 15.0039C14.08 15.2939 14.08 15.7739 13.79 16.0639C13.64 16.2139 13.45 16.2839 13.26 16.2839C13.07 16.2839 12.88 16.2139 12.73 16.0639L9.2 12.5339C8.91 12.2439 8.91 11.7639 9.2 11.4739L12.73 7.94391C13.02 7.65391 13.5 7.65391 13.79 7.94391C14.08 8.23391 14.08 8.71391 13.79 9.00391L10.79 12.0039L13.79 15.0039Z" fill="#2F3454"/>
</svg>
