<svg width="18" height="19" viewBox="0 0 18 19" fill="none" xmlns="http://www.w3.org/2000/svg">
<path d="M12.5625 2.81898V1.58398C12.5625 1.2594 12.3075 0.990234 12 0.990234C11.6925 0.990234 11.4375 1.2594 11.4375 1.58398V2.77148H6.56249V1.58398C6.56249 1.2594 6.30749 0.990234 5.99999 0.990234C5.69249 0.990234 5.43749 1.2594 5.43749 1.58398V2.81898C3.41249 3.0169 2.42999 4.29148 2.27999 6.18357C2.26499 6.41315 2.44499 6.60315 2.65499 6.60315H15.345C15.5625 6.60315 15.7425 6.40523 15.72 6.18357C15.57 4.29148 14.5875 3.0169 12.5625 2.81898Z" fill="#2F3454"/>
<path d="M15 7.78906H3C2.5875 7.78906 2.25 8.14531 2.25 8.58073V13.4574C2.25 15.8324 3.375 17.4157 6 17.4157H12C14.625 17.4157 15.75 15.8324 15.75 13.4574V8.58073C15.75 8.14531 15.4125 7.78906 15 7.78906ZM6.9075 14.4153C6.87 14.447 6.8325 14.4866 6.795 14.5103C6.75 14.542 6.705 14.5657 6.66 14.5816C6.615 14.6053 6.57 14.6211 6.525 14.6291C6.4725 14.637 6.4275 14.6449 6.375 14.6449C6.2775 14.6449 6.18 14.6211 6.09 14.5816C5.9925 14.542 5.9175 14.4866 5.8425 14.4153C5.7075 14.2649 5.625 14.0591 5.625 13.8532C5.625 13.6474 5.7075 13.4416 5.8425 13.2911C5.9175 13.2199 5.9925 13.1645 6.09 13.1249C6.225 13.0616 6.375 13.0457 6.525 13.0774C6.57 13.0853 6.615 13.1011 6.66 13.1249C6.705 13.1407 6.75 13.1645 6.795 13.1961C6.8325 13.2278 6.87 13.2595 6.9075 13.2911C7.0425 13.4416 7.125 13.6474 7.125 13.8532C7.125 14.0591 7.0425 14.2649 6.9075 14.4153ZM6.9075 11.6445C6.765 11.787 6.57 11.8741 6.375 11.8741C6.18 11.8741 5.985 11.787 5.8425 11.6445C5.7075 11.4941 5.625 11.2882 5.625 11.0824C5.625 10.8766 5.7075 10.6707 5.8425 10.5203C6.0525 10.2986 6.3825 10.2274 6.66 10.3541C6.7575 10.3936 6.84 10.4491 6.9075 10.5203C7.0425 10.6707 7.125 10.8766 7.125 11.0824C7.125 11.2882 7.0425 11.4941 6.9075 11.6445ZM9.5325 14.4153C9.39 14.5578 9.195 14.6449 9 14.6449C8.805 14.6449 8.61 14.5578 8.4675 14.4153C8.3325 14.2649 8.25 14.0591 8.25 13.8532C8.25 13.6474 8.3325 13.4416 8.4675 13.2911C8.745 12.9982 9.255 12.9982 9.5325 13.2911C9.6675 13.4416 9.75 13.6474 9.75 13.8532C9.75 14.0591 9.6675 14.2649 9.5325 14.4153ZM9.5325 11.6445C9.495 11.6761 9.4575 11.7078 9.42 11.7395C9.375 11.7711 9.33 11.7949 9.285 11.8107C9.24 11.8345 9.195 11.8503 9.15 11.8582C9.0975 11.8661 9.0525 11.8741 9 11.8741C8.805 11.8741 8.61 11.787 8.4675 11.6445C8.3325 11.4941 8.25 11.2882 8.25 11.0824C8.25 10.8766 8.3325 10.6707 8.4675 10.5203C8.535 10.4491 8.6175 10.3936 8.715 10.3541C8.9925 10.2274 9.3225 10.2986 9.5325 10.5203C9.6675 10.6707 9.75 10.8766 9.75 11.0824C9.75 11.2882 9.6675 11.4941 9.5325 11.6445ZM12.1575 14.4153C12.015 14.5578 11.82 14.6449 11.625 14.6449C11.43 14.6449 11.235 14.5578 11.0925 14.4153C10.9575 14.2649 10.875 14.0591 10.875 13.8532C10.875 13.6474 10.9575 13.4416 11.0925 13.2911C11.37 12.9982 11.88 12.9982 12.1575 13.2911C12.2925 13.4416 12.375 13.6474 12.375 13.8532C12.375 14.0591 12.2925 14.2649 12.1575 14.4153ZM12.1575 11.6445C12.12 11.6761 12.0825 11.7078 12.045 11.7395C12 11.7711 11.955 11.7949 11.91 11.8107C11.865 11.8345 11.82 11.8503 11.775 11.8582C11.7225 11.8661 11.67 11.8741 11.625 11.8741C11.43 11.8741 11.235 11.787 11.0925 11.6445C10.9575 11.4941 10.875 11.2882 10.875 11.0824C10.875 10.8766 10.9575 10.6707 11.0925 10.5203C11.1675 10.4491 11.2425 10.3936 11.34 10.3541C11.475 10.2907 11.625 10.2749 11.775 10.3066C11.82 10.3145 11.865 10.3303 11.91 10.3541C11.955 10.3699 12 10.3936 12.045 10.4253C12.0825 10.457 12.12 10.4886 12.1575 10.5203C12.2925 10.6707 12.375 10.8766 12.375 11.0824C12.375 11.2882 12.2925 11.4941 12.1575 11.6445Z" fill="#2F3454"/>
</svg>
