<svg width="43" height="38" viewBox="0 0 43 38" fill="none" xmlns="http://www.w3.org/2000/svg">
<path fill-rule="evenodd" clip-rule="evenodd" d="M20.3469 0C9.36428 0.495352 0.625977 8.80723 0.625977 18.9883C0.625977 29.1693 9.36428 37.4812 20.3469 37.9765V0ZM21.2968 37.9997C21.3262 37.9998 21.3556 37.9999 21.385 37.9999C21.4144 37.9999 21.4438 37.9998 21.4731 37.9997H21.2968ZM24.4987 37.7874C34.4865 36.4116 42.144 28.5189 42.144 18.9883C42.144 9.45761 34.4865 1.56494 24.4987 0.189077V5.98695C31.0279 7.29233 35.9164 12.6178 35.9164 18.9889C35.9164 25.36 31.0279 30.6854 24.4987 31.9908V37.7874Z" fill="#2F3454"/>
</svg>
