<svg width="32" height="32" viewBox="0 0 32 32" fill="none" xmlns="http://www.w3.org/2000/svg">
<path d="M29.3334 11.3337C29.3334 15.6803 26.1334 19.267 21.9734 19.8937V19.8137C21.56 14.6403 17.36 10.4403 12.1467 10.027H12.1067C12.7334 5.86699 16.32 2.66699 20.6667 2.66699C25.4534 2.66699 29.3334 6.54699 29.3334 11.3337Z" fill="#2F3454"/>
<path d="M19.9734 19.9733C19.6401 15.7467 16.2534 12.36 12.0267 12.0267C11.8001 12.0133 11.5601 12 11.3334 12C6.54675 12 2.66675 15.88 2.66675 20.6667C2.66675 25.4533 6.54675 29.3333 11.3334 29.3333C16.1201 29.3333 20.0001 25.4533 20.0001 20.6667C20.0001 20.44 19.9867 20.2 19.9734 19.9733ZM12.5067 21.84L11.3334 24L10.1601 21.84L8.00008 20.6667L10.1601 19.4933L11.3334 17.3333L12.5067 19.4933L14.6667 20.6667L12.5067 21.84Z" fill="#2F3454"/>
<path d="M30.7896 19.1253C30.444 19.0277 30.0361 19.3765 29.8898 19.8947C28.8335 23.6357 26.2121 26.2798 23.6453 26.442L24.0334 25.9376C24.3389 25.5325 24.4103 24.925 24.1818 24.5739C23.9618 24.2252 23.5263 24.2524 23.2208 24.6574L21.7113 26.6192C21.5112 26.8766 21.4077 27.2431 21.4352 27.5647C21.4592 27.899 21.6199 28.1354 21.8475 28.1997C25.4468 29.216 29.622 25.646 31.1457 20.2493C31.3005 19.7335 31.1352 19.2229 30.7896 19.1253Z" fill="#2F3454"/>
<path d="M11.1335 1.90451C7.5459 0.855185 3.3391 4.3864 1.76488 9.76857C1.61372 10.2854 1.77404 10.7975 2.11851 10.8982C2.46298 10.999 2.87399 10.654 3.02515 10.1372C4.11641 6.40622 6.76148 3.78651 9.32842 3.64792L8.93567 4.14877C8.62651 4.55093 8.54934 5.15778 8.77438 5.51094C8.99102 5.86165 9.42646 5.83849 9.73562 5.43634L11.263 3.48856C11.457 3.2306 11.5686 2.88013 11.5395 2.54321C11.5151 2.22136 11.3603 1.97086 11.1335 1.90451Z" fill="#2F3454"/>
</svg>
