<svg width="16" height="16" viewBox="0 0 16 16" fill="none" xmlns="http://www.w3.org/2000/svg">
<path d="M14 14.668H2C1.72667 14.668 1.5 14.4413 1.5 14.168C1.5 13.8946 1.72667 13.668 2 13.668H14C14.2733 13.668 14.5 13.8946 14.5 14.168C14.5 14.4413 14.2733 14.668 14 14.668Z" fill="white"/>
<path d="M12.6804 2.31848C11.387 1.02514 10.1204 0.991811 8.79371 2.31848L7.98704 3.12514C7.92037 3.19181 7.89371 3.29848 7.92038 3.39181C8.42704 5.15848 9.84037 6.57181 11.607 7.07848C11.6337 7.08514 11.6604 7.09181 11.687 7.09181C11.7604 7.09181 11.827 7.06514 11.8804 7.01181L12.6804 6.20514C13.3404 5.55181 13.6604 4.91848 13.6604 4.27848C13.667 3.61848 13.347 2.97848 12.6804 2.31848Z" fill="white"/>
<path d="M10.4075 7.68849C10.2142 7.59516 10.0275 7.50182 9.84753 7.39516C9.70086 7.30849 9.56086 7.21516 9.42086 7.11516C9.30753 7.04182 9.1742 6.93516 9.04753 6.82849C9.0342 6.82182 8.98753 6.78182 8.9342 6.72849C8.7142 6.54182 8.46753 6.30182 8.24753 6.03516C8.22753 6.02182 8.1942 5.97516 8.14753 5.91516C8.08086 5.83516 7.96753 5.70182 7.86753 5.54849C7.78753 5.44849 7.6942 5.30182 7.60753 5.15516C7.50086 4.97516 7.40753 4.79516 7.3142 4.60849C7.19182 4.34626 6.84765 4.26836 6.64304 4.47298L2.8942 8.22182C2.80753 8.30849 2.72753 8.47516 2.70753 8.58849L2.34753 11.1418C2.28086 11.5952 2.40753 12.0218 2.68753 12.3085C2.92753 12.5418 3.26086 12.6685 3.62086 12.6685C3.70086 12.6685 3.78086 12.6618 3.86086 12.6485L6.42086 12.2885C6.54086 12.2685 6.70753 12.1885 6.78753 12.1018L10.5426 8.3468C10.7431 8.14627 10.6677 7.80125 10.4075 7.68849Z" fill="white"/>
</svg>
