<svg width="16" height="16" viewBox="0 0 16 16" fill="none" xmlns="http://www.w3.org/2000/svg">
<path d="M11.1997 6H8.49967V10.1667C8.49967 10.44 8.27301 10.6667 7.99967 10.6667C7.72634 10.6667 7.49967 10.44 7.49967 10.1667V6H4.79967C2.66634 6 1.33301 7.33333 1.33301 9.46667V11.1933C1.33301 13.3333 2.66634 14.6667 4.79967 14.6667H11.193C13.3263 14.6667 14.6597 13.3333 14.6597 11.2V9.46667C14.6663 7.33333 13.333 6 11.1997 6Z" fill="#2F3454"/>
<path d="M8.50022 3.04094L9.88022 4.42094C9.98022 4.52094 10.1069 4.5676 10.2336 4.5676C10.3602 4.5676 10.4869 4.52094 10.5869 4.42094C10.7802 4.2276 10.7802 3.9076 10.5869 3.71427L8.35355 1.48094C8.16022 1.2876 7.84022 1.2876 7.64689 1.48094L5.41355 3.71427C5.22022 3.9076 5.22022 4.2276 5.41355 4.42094C5.60689 4.61427 5.92689 4.61427 6.12022 4.42094L7.50022 3.04094V6.00094H8.50022V3.04094Z" fill="#2F3454"/>
</svg>
