<svg width="59" height="54" viewBox="0 0 59 54" fill="none" xmlns="http://www.w3.org/2000/svg">
<path d="M41.3003 20.25H31.3441V34.3125C31.3441 35.235 30.5082 36 29.5003 36C28.4924 36 27.6566 35.235 27.6566 34.3125V20.25H17.7003C9.83366 20.25 4.91699 24.75 4.91699 31.95V37.7775C4.91699 45 9.83366 49.5 17.7003 49.5H41.2757C49.1424 49.5 54.0591 45 54.0591 37.8V31.95C54.0837 24.75 49.167 20.25 41.3003 20.25Z" fill="white"/>
<path d="M31.3435 10.2602L36.4323 14.9177C36.801 15.2552 37.2681 15.4127 37.7352 15.4127C38.2023 15.4127 38.6694 15.2552 39.0381 14.9177C39.751 14.2652 39.751 13.1852 39.0381 12.5327L30.8027 4.99523C30.0898 4.34273 28.9098 4.34273 28.1969 4.99523L19.9614 12.5327C19.2485 13.1852 19.2485 14.2652 19.9614 14.9177C20.6744 15.5702 21.8544 15.5702 22.5673 14.9177L27.656 10.2602V20.2502H31.3435V10.2602Z" fill="white"/>
</svg>
