<svg width="24" height="24" viewBox="0 0 24 24" fill="none" xmlns="http://www.w3.org/2000/svg">
<path d="M16.8 9H12.75V15.25C12.75 15.66 12.41 16 12 16C11.59 16 11.25 15.66 11.25 15.25V9H7.2C4 9 2 11 2 14.2V16.79C2 20 4 22 7.2 22H16.79C19.99 22 21.99 20 21.99 16.8V14.2C22 11 20 9 16.8 9Z" fill="#2F3454"/>
<path d="M12.7498 4.55945L14.8198 6.62945C14.9698 6.77945 15.1598 6.84945 15.3498 6.84945C15.5398 6.84945 15.7298 6.77945 15.8798 6.62945C16.1698 6.33945 16.1698 5.85945 15.8798 5.56945L12.5298 2.21945C12.2398 1.92945 11.7598 1.92945 11.4698 2.21945L8.11984 5.56945C7.82984 5.85945 7.82984 6.33945 8.11984 6.62945C8.40984 6.91945 8.88984 6.91945 9.17984 6.62945L11.2498 4.55945V8.99945H12.7498V4.55945Z" fill="#2F3454"/>
</svg>
