<svg width="16" height="16" viewBox="0 0 16 16" fill="none" xmlns="http://www.w3.org/2000/svg">
<path d="M14.1693 6.09849C12.6293 3.67849 10.3759 2.28516 8.0026 2.28516C6.81594 2.28516 5.6626 2.63182 4.60927 3.27849C3.55594 3.93182 2.60927 4.88516 1.83594 6.09849C1.16927 7.14516 1.16927 8.84516 1.83594 9.89182C3.37594 12.3185 5.62927 13.7052 8.0026 13.7052C9.18927 13.7052 10.3426 13.3585 11.3959 12.7118C12.4493 12.0585 13.3959 11.1052 14.1693 9.89182C14.8359 8.85182 14.8359 7.14516 14.1693 6.09849ZM8.0026 10.6918C6.50927 10.6918 5.30927 9.48516 5.30927 7.99849C5.30927 6.51182 6.50927 5.30516 8.0026 5.30516C9.49594 5.30516 10.6959 6.51182 10.6959 7.99849C10.6959 9.48516 9.49594 10.6918 8.0026 10.6918Z" fill="#292D32"/>
<path d="M8.00156 6.09375C6.9549 6.09375 6.10156 6.94708 6.10156 8.00042C6.10156 9.04708 6.9549 9.90042 8.00156 9.90042C9.04823 9.90042 9.90823 9.04708 9.90823 8.00042C9.90823 6.95375 9.04823 6.09375 8.00156 6.09375Z" fill="#292D32"/>
</svg>
