<svg width="16" height="16" viewBox="0 0 16 16" fill="none" xmlns="http://www.w3.org/2000/svg">
<path d="M8.0026 1.33203C4.32927 1.33203 1.33594 4.32536 1.33594 7.9987C1.33594 11.672 4.32927 14.6654 8.0026 14.6654C11.6759 14.6654 14.6693 11.672 14.6693 7.9987C14.6693 4.32536 11.6759 1.33203 8.0026 1.33203ZM10.9026 10.3787C10.8093 10.5387 10.6426 10.6254 10.4693 10.6254C10.3826 10.6254 10.2959 10.6054 10.2159 10.552L8.14927 9.3187C7.63594 9.01203 7.25594 8.3387 7.25594 7.74536V5.01203C7.25594 4.7387 7.4826 4.51203 7.75594 4.51203C8.02927 4.51203 8.25594 4.7387 8.25594 5.01203V7.74536C8.25594 7.98536 8.45594 8.3387 8.6626 8.4587L10.7293 9.69203C10.9693 9.83203 11.0493 10.1387 10.9026 10.3787Z" fill="#292D32"/>
</svg>
