<svg width="24" height="24" viewBox="0 0 24 24" fill="none" xmlns="http://www.w3.org/2000/svg">
<path d="M12 1.96484C6.49 1.96484 2 6.37246 2 11.7814C2 17.1903 6.49 21.5979 12 21.5979C17.51 21.5979 22 17.1903 22 11.7814C22 6.37246 17.51 1.96484 12 1.96484ZM15.36 14.0392C15.65 14.3238 15.65 14.795 15.36 15.0797C15.21 15.227 15.02 15.2957 14.83 15.2957C14.64 15.2957 14.45 15.227 14.3 15.0797L12 12.8219L9.7 15.0797C9.55 15.227 9.36 15.2957 9.17 15.2957C8.98 15.2957 8.79 15.227 8.64 15.0797C8.35 14.795 8.35 14.3238 8.64 14.0392L10.94 11.7814L8.64 9.52356C8.35 9.23888 8.35 8.76769 8.64 8.48301C8.93 8.19833 9.41 8.19833 9.7 8.48301L12 10.7408L14.3 8.48301C14.59 8.19833 15.07 8.19833 15.36 8.48301C15.65 8.76769 15.65 9.23888 15.36 9.52356L13.06 11.7814L15.36 14.0392Z" fill="#2F3454"/>
</svg>
