<svg width="16" height="16" viewBox="0 0 16 16" fill="none" xmlns="http://www.w3.org/2000/svg">
<path d="M8.5 9.68151H8.65334C8.87334 9.68151 9.06 9.48151 9.06 9.23484C9.06 8.92151 8.98667 8.88151 8.77334 8.80818L8.5 8.71484V9.68151Z" fill="#D0CBAB"/>
<path d="M8.0026 1.33203C4.3226 1.33203 1.33594 4.3187 1.33594 7.9987C1.33594 11.6787 4.3226 14.6654 8.0026 14.6654C11.6826 14.6654 14.6693 11.6787 14.6693 7.9987C14.6693 4.3187 11.6826 1.33203 8.0026 1.33203ZM5.05593 10.9454C5.24926 11.1387 5.24926 11.4587 5.05593 11.652C4.95593 11.752 4.82926 11.7987 4.7026 11.7987C4.57593 11.7987 4.44926 11.752 4.34926 11.652C3.37593 10.6787 2.83594 9.3787 2.83594 7.9987C2.83594 6.6187 3.37593 5.3187 4.34926 4.34536C4.5426 4.15203 4.86259 4.15203 5.05593 4.34536C5.24926 4.5387 5.24926 4.8587 5.05593 5.05203C4.26926 5.8387 3.83594 6.88536 3.83594 7.9987C3.83594 9.11203 4.26926 10.1587 5.05593 10.9454ZM9.1026 7.85203C9.7426 8.0787 10.0559 8.52536 10.0559 9.22536C10.0559 10.0254 9.42927 10.672 8.64927 10.672H8.49593V10.792C8.49593 11.0654 8.26926 11.292 7.99593 11.292C7.7226 11.292 7.49593 11.0654 7.49593 10.792V10.672H7.47593C6.62926 10.672 5.93593 9.9587 5.93593 9.08536C5.93593 8.81203 6.1626 8.58536 6.43593 8.58536C6.70927 8.58536 6.93593 8.81203 6.93593 9.08536C6.93593 9.41203 7.17593 9.67203 7.47593 9.67203H7.49593V8.35203L6.89593 8.1387C6.25593 7.91203 5.94261 7.46536 5.94261 6.76537C5.94261 5.96536 6.56926 5.3187 7.34926 5.3187H7.5026V5.1987C7.5026 4.92537 7.72927 4.6987 8.0026 4.6987C8.27594 4.6987 8.5026 4.92537 8.5026 5.1987V5.3187H8.5226C9.36927 5.3187 10.0626 6.03203 10.0626 6.90536C10.0626 7.1787 9.83593 7.40536 9.5626 7.40536C9.28927 7.40536 9.0626 7.1787 9.0626 6.90536C9.0626 6.5787 8.8226 6.3187 8.5226 6.3187H8.5026V7.6387L9.1026 7.85203ZM11.6559 11.652C11.5559 11.752 11.4293 11.7987 11.3026 11.7987C11.1759 11.7987 11.0493 11.752 10.9493 11.652C10.7559 11.4587 10.7559 11.1387 10.9493 10.9454C11.7359 10.1587 12.1693 9.11203 12.1693 7.9987C12.1693 6.88536 11.7359 5.8387 10.9493 5.05203C10.7559 4.8587 10.7559 4.5387 10.9493 4.34536C11.1426 4.15203 11.4626 4.15203 11.6559 4.34536C12.6293 5.3187 13.1693 6.6187 13.1693 7.9987C13.1693 9.3787 12.6293 10.6787 11.6559 11.652Z" fill="#D0CBAB"/>
<path d="M6.94531 6.77365C6.94531 7.08698 7.01864 7.12698 7.23197 7.20031L7.50531 7.29365V6.32031H7.35197C7.1253 6.32031 6.94531 6.52698 6.94531 6.77365Z" fill="#D0CBAB"/>
</svg>
