<svg width="16" height="16" viewBox="0 0 16 16" fill="none" xmlns="http://www.w3.org/2000/svg">
<path d="M8.0026 1.33203C4.3226 1.33203 1.33594 4.3187 1.33594 7.9987C1.33594 11.6787 4.3226 14.6654 8.0026 14.6654C11.6826 14.6654 14.6693 11.6787 14.6693 7.9987C14.6693 4.3187 11.6826 1.33203 8.0026 1.33203ZM7.75594 10.832C7.18927 11.3987 6.61594 11.3987 6.0426 10.832L4.33594 9.1187C4.0426 8.82536 3.9026 8.53203 3.90927 8.23203C3.91594 7.95203 4.0626 7.6787 4.33594 7.40536L6.73594 5.00536L6.3626 4.6387C6.23594 4.51203 6.23594 4.31203 6.3626 4.18536C6.48927 4.0587 6.68927 4.0587 6.81594 4.18536L7.1826 4.55203L10.3159 7.68536C10.3826 7.75203 10.4293 7.85203 10.4293 7.94536C10.4359 8.0587 10.4026 8.17203 10.3159 8.2587L7.75594 10.832ZM11.0959 11.9054C10.5426 11.9054 10.0959 11.4587 10.0959 10.9054C10.0959 10.3454 10.7559 9.60536 10.8893 9.4587C10.9959 9.3387 11.2026 9.3387 11.3159 9.4587C11.4493 9.5987 12.1093 10.3454 12.1093 10.9054C12.0959 11.4587 11.6493 11.9054 11.0959 11.9054Z" fill="#292D32"/>
</svg>
