<svg width="17" height="17" viewBox="0 0 17 17" fill="none" xmlns="http://www.w3.org/2000/svg">
<path d="M8.23698 1.86328C4.55698 1.86328 1.57031 4.84995 1.57031 8.52995C1.57031 12.2099 4.55698 15.1966 8.23698 15.1966C11.917 15.1966 14.9036 12.2099 14.9036 8.52995C14.9036 4.84995 11.917 1.86328 8.23698 1.86328ZM5.92365 9.50995C6.11698 9.70328 6.11698 10.0233 5.92365 10.2166C5.82365 10.3166 5.69698 10.3633 5.57031 10.3633C5.44365 10.3633 5.31698 10.3166 5.21698 10.2166L3.88365 8.88328C3.69031 8.68995 3.69031 8.36995 3.88365 8.17661L5.21698 6.84328C5.41031 6.64995 5.73031 6.64995 5.92365 6.84328C6.11698 7.03661 6.11698 7.35661 5.92365 7.54995L4.94365 8.52995L5.92365 9.50995ZM9.36365 7.16995L8.03031 10.2833C7.95031 10.4699 7.76365 10.5833 7.57031 10.5833C7.50365 10.5833 7.43698 10.5699 7.37698 10.5433C7.12365 10.4366 7.00365 10.1433 7.11698 9.88328L8.45031 6.76995C8.55698 6.51661 8.85031 6.39661 9.10365 6.50995C9.35698 6.62328 9.47031 6.91661 9.36365 7.16995ZM12.5903 8.88328L11.257 10.2166C11.157 10.3166 11.0303 10.3633 10.9036 10.3633C10.777 10.3633 10.6503 10.3166 10.5503 10.2166C10.357 10.0233 10.357 9.70328 10.5503 9.50995L11.5303 8.52995L10.5503 7.54995C10.357 7.35661 10.357 7.03661 10.5503 6.84328C10.7436 6.64995 11.0636 6.64995 11.257 6.84328L12.5903 8.17661C12.7836 8.36995 12.7836 8.68995 12.5903 8.88328Z" fill="#292D32"/>
</svg>
