<svg width="16" height="16" viewBox="0 0 16 16" fill="none" xmlns="http://www.w3.org/2000/svg">
<path d="M6.0026 1.33203C4.25594 1.33203 2.83594 2.75203 2.83594 4.4987C2.83594 6.21203 4.17594 7.5987 5.9226 7.6587C5.97594 7.65203 6.02927 7.65203 6.06927 7.6587C6.0826 7.6587 6.08927 7.6587 6.1026 7.6587C6.10927 7.6587 6.10927 7.6587 6.11594 7.6587C7.8226 7.5987 9.1626 6.21203 9.16927 4.4987C9.16927 2.75203 7.74927 1.33203 6.0026 1.33203Z" fill="#292D32"/>
<path d="M9.38469 9.43391C7.52469 8.19391 4.49135 8.19391 2.61802 9.43391C1.77135 10.0006 1.30469 10.7672 1.30469 11.5872C1.30469 12.4072 1.77135 13.1672 2.61135 13.7272C3.54469 14.3539 4.77135 14.6672 5.99802 14.6672C7.22469 14.6672 8.45135 14.3539 9.38469 13.7272C10.2247 13.1606 10.6914 12.4006 10.6914 11.5739C10.6847 10.7539 10.2247 9.99391 9.38469 9.43391Z" fill="#292D32"/>
<path d="M13.3263 4.8921C13.4329 6.18543 12.5129 7.31876 11.2396 7.4721C11.2329 7.4721 11.2329 7.4721 11.2263 7.4721H11.2062C11.1662 7.4721 11.1262 7.4721 11.0929 7.48543C10.4462 7.51876 9.85292 7.3121 9.40625 6.9321C10.0929 6.31876 10.4863 5.39876 10.4062 4.39876C10.3596 3.85876 10.1729 3.36543 9.89292 2.94543C10.1463 2.81876 10.4396 2.73876 10.7396 2.7121C12.0463 2.59876 13.2129 3.5721 13.3263 4.8921Z" fill="#292D32"/>
<path d="M14.6615 11.059C14.6081 11.7056 14.1948 12.2656 13.5015 12.6456C12.8348 13.0123 11.9948 13.1856 11.1615 13.1656C11.6415 12.7323 11.9215 12.1923 11.9748 11.619C12.0415 10.7923 11.6481 9.99896 10.8615 9.36563C10.4148 9.0123 9.89479 8.7323 9.32812 8.52563C10.8015 8.09896 12.6548 8.38563 13.7948 9.30563C14.4081 9.79896 14.7215 10.419 14.6615 11.059Z" fill="#292D32"/>
</svg>
