<svg width="14" height="14" viewBox="0 0 14 14" fill="none" xmlns="http://www.w3.org/2000/svg">
  <path
    d="M9.79399 0.333344H4.20732C1.78065 0.333344 0.333984 1.78001 0.333984 4.20668V9.78668C0.333984 12.22 1.78065 13.6667 4.20732 13.6667H9.78732C12.214 13.6667 13.6607 12.22 13.6607 9.79334V4.20668C13.6673 1.78001 12.2207 0.333344 9.79399 0.333344ZM10.1873 5.46668L6.40732 9.24668C6.31398 9.34001 6.18732 9.39334 6.05398 9.39334C5.92065 9.39334 5.79398 9.34001 5.70065 9.24668L3.81398 7.36001C3.62065 7.16668 3.62065 6.84668 3.81398 6.65334C4.00732 6.46001 4.32732 6.46001 4.52065 6.65334L6.05398 8.18668L9.48065 4.76001C9.67398 4.56668 9.99399 4.56668 10.1873 4.76001C10.3807 4.95334 10.3807 5.26668 10.1873 5.46668Z"
    fill="#26993F" />
</svg>