<svg width="145" height="24" viewBox="0 0 145 24" fill="none" xmlns="http://www.w3.org/2000/svg">
  <rect width="145" height="24" rx="8" fill="#DCFFE4" />
  <path
    d="M17.2347 11.6364C17.2347 12.5568 17.0685 13.3523 16.7361 14.0227C16.4037 14.6932 15.9477 15.2102 15.3682 15.5739C14.7886 15.9375 14.1267 16.1193 13.3824 16.1193C12.6381 16.1193 11.9761 15.9375 11.3966 15.5739C10.8171 15.2102 10.3611 14.6932 10.0287 14.0227C9.69632 13.3523 9.53012 12.5568 9.53012 11.6364C9.53012 10.7159 9.69632 9.92045 10.0287 9.25C10.3611 8.57955 10.8171 8.0625 11.3966 7.69886C11.9761 7.33523 12.6381 7.15341 13.3824 7.15341C14.1267 7.15341 14.7886 7.33523 15.3682 7.69886C15.9477 8.0625 16.4037 8.57955 16.7361 9.25C17.0685 9.92045 17.2347 10.7159 17.2347 11.6364ZM16.2119 11.6364C16.2119 10.8807 16.0855 10.2429 15.8327 9.72301C15.5827 9.20312 15.2432 8.80966 14.8142 8.54261C14.3881 8.27557 13.9108 8.14205 13.3824 8.14205C12.854 8.14205 12.3753 8.27557 11.9463 8.54261C11.5202 8.80966 11.1807 9.20312 10.9278 9.72301C10.6778 10.2429 10.5528 10.8807 10.5528 11.6364C10.5528 12.392 10.6778 13.0298 10.9278 13.5497C11.1807 14.0696 11.5202 14.4631 11.9463 14.7301C12.3753 14.9972 12.854 15.1307 13.3824 15.1307C13.9108 15.1307 14.3881 14.9972 14.8142 14.7301C15.2432 14.4631 15.5827 14.0696 15.8327 13.5497C16.0855 13.0298 16.2119 12.392 16.2119 11.6364ZM23.0003 13.3239V9.45455H24.006V16H23.0003V14.892H22.9321C22.7787 15.2244 22.5401 15.5071 22.2162 15.7401C21.8923 15.9702 21.4832 16.0852 20.9889 16.0852C20.5798 16.0852 20.2162 15.9957 19.898 15.8168C19.5798 15.6349 19.3298 15.3622 19.148 14.9986C18.9662 14.6321 18.8753 14.1705 18.8753 13.6136V9.45455H19.881V13.5455C19.881 14.0227 20.0145 14.4034 20.2815 14.6875C20.5514 14.9716 20.8952 15.1136 21.3128 15.1136C21.5628 15.1136 21.8171 15.0497 22.0756 14.9219C22.3369 14.794 22.5557 14.598 22.7318 14.3338C22.9108 14.0696 23.0003 13.733 23.0003 13.3239ZM28.6945 9.45455V10.3068H25.3025V9.45455H28.6945ZM26.2911 7.88636H27.2968V14.125C27.2968 14.4091 27.338 14.6222 27.4204 14.7642C27.5056 14.9034 27.6136 14.9972 27.7443 15.0455C27.8778 15.0909 28.0184 15.1136 28.1661 15.1136C28.2769 15.1136 28.3678 15.108 28.4389 15.0966C28.5099 15.0824 28.5667 15.071 28.6093 15.0625L28.8139 15.9659C28.7457 15.9915 28.6505 16.017 28.5283 16.0426C28.4062 16.071 28.2514 16.0852 28.0639 16.0852C27.7798 16.0852 27.5014 16.0241 27.2286 15.902C26.9587 15.7798 26.7343 15.5938 26.5553 15.3438C26.3792 15.0938 26.2911 14.7784 26.2911 14.3977V7.88636ZM32.6086 16.1364C32.0631 16.1364 31.5816 15.9986 31.164 15.723C30.7464 15.4446 30.4197 15.0526 30.1839 14.5469C29.9481 14.0384 29.8302 13.4375 29.8302 12.7443C29.8302 12.0568 29.9481 11.4602 30.1839 10.9545C30.4197 10.4489 30.7478 10.0582 31.1683 9.78267C31.5887 9.5071 32.0745 9.36932 32.6256 9.36932C33.0518 9.36932 33.3884 9.44034 33.6356 9.58239C33.8856 9.72159 34.0759 9.88068 34.2066 10.0597C34.3401 10.2358 34.4438 10.3807 34.5177 10.4943H34.6029V7.27273H35.6086V16H34.637V14.9943H34.5177C34.4438 15.1136 34.3387 15.2642 34.2024 15.446C34.066 15.625 33.8714 15.7855 33.6185 15.9276C33.3657 16.0668 33.0291 16.1364 32.6086 16.1364ZM32.745 15.233C33.1484 15.233 33.4893 15.1278 33.7677 14.9176C34.0461 14.7045 34.2577 14.4105 34.4026 14.0355C34.5475 13.6577 34.62 13.2216 34.62 12.7273C34.62 12.2386 34.5489 11.8111 34.4069 11.4446C34.2649 11.0753 34.0546 10.7884 33.7762 10.5838C33.4978 10.3764 33.1541 10.2727 32.745 10.2727C32.3188 10.2727 31.9637 10.3821 31.6796 10.6009C31.3984 10.8168 31.1867 11.1108 31.0447 11.483C30.9055 11.8523 30.8359 12.267 30.8359 12.7273C30.8359 13.1932 30.9069 13.6165 31.0489 13.9972C31.1938 14.375 31.4069 14.6761 31.6881 14.9006C31.9722 15.1222 32.3245 15.233 32.745 15.233ZM40.3345 16.1364C39.7038 16.1364 39.1597 15.9972 38.7024 15.7188C38.2478 15.4375 37.897 15.0455 37.6498 14.5426C37.4055 14.0369 37.2833 13.4489 37.2833 12.7784C37.2833 12.108 37.4055 11.517 37.6498 11.0057C37.897 10.4915 38.2407 10.0909 38.681 9.80398C39.1242 9.5142 39.6413 9.36932 40.2322 9.36932C40.5731 9.36932 40.9097 9.42614 41.2421 9.53977C41.5745 9.65341 41.8771 9.83807 42.1498 10.0938C42.4225 10.3466 42.6399 10.6818 42.8018 11.0994C42.9637 11.517 43.0447 12.0312 43.0447 12.642V13.0682H37.9992V12.1989H42.022C42.022 11.8295 41.9481 11.5 41.8004 11.2102C41.6555 10.9205 41.4481 10.6918 41.1782 10.5241C40.9112 10.3565 40.5958 10.2727 40.2322 10.2727C39.8316 10.2727 39.485 10.3722 39.1924 10.571C38.9026 10.767 38.6796 11.0227 38.5234 11.3381C38.3671 11.6534 38.289 11.9915 38.289 12.3523V12.9318C38.289 13.4261 38.3742 13.8452 38.5447 14.1889C38.718 14.5298 38.958 14.7898 39.2649 14.9688C39.5717 15.1449 39.9282 15.233 40.3345 15.233C40.5987 15.233 40.8373 15.196 41.0504 15.1222C41.2663 15.0455 41.4524 14.9318 41.6086 14.7812C41.7649 14.6278 41.8856 14.4375 41.9708 14.2102L42.9424 14.483C42.8401 14.8125 42.6683 15.1023 42.4268 15.3523C42.1853 15.5994 41.887 15.7926 41.5319 15.9318C41.1768 16.0682 40.7776 16.1364 40.3345 16.1364ZM47.4893 9.45455V10.3068H43.9609V9.45455H47.4893ZM45.0177 16V8.55114C45.0177 8.17614 45.1058 7.86364 45.2819 7.61364C45.458 7.36364 45.6867 7.17614 45.968 7.05114C46.2492 6.92614 46.5461 6.86364 46.8586 6.86364C47.1058 6.86364 47.3075 6.88352 47.4637 6.9233C47.62 6.96307 47.7364 7 47.8131 7.03409L47.5234 7.90341C47.4722 7.88636 47.4012 7.86506 47.3103 7.83949C47.2222 7.81392 47.1058 7.80114 46.9609 7.80114C46.6285 7.80114 46.3884 7.88494 46.2407 8.05256C46.0958 8.22017 46.0234 8.46591 46.0234 8.78977V16H45.0177ZM48.8987 16V9.45455H49.9044V16H48.8987ZM49.4101 8.36364C49.2141 8.36364 49.045 8.29688 48.903 8.16335C48.7638 8.02983 48.6942 7.86932 48.6942 7.68182C48.6942 7.49432 48.7638 7.33381 48.903 7.20028C49.045 7.06676 49.2141 7 49.4101 7C49.6061 7 49.7737 7.06676 49.9129 7.20028C50.055 7.33381 50.126 7.49432 50.126 7.68182C50.126 7.86932 50.055 8.02983 49.9129 8.16335C49.7737 8.29688 49.6061 8.36364 49.4101 8.36364ZM52.7521 12.0625V16H51.7464V9.45455H52.718V10.4773H52.8032C52.9566 10.1449 53.1896 9.87784 53.5021 9.67614C53.8146 9.47159 54.218 9.36932 54.7123 9.36932C55.1555 9.36932 55.5433 9.46023 55.8756 9.64205C56.208 9.82102 56.4666 10.0938 56.6512 10.4602C56.8359 10.8239 56.9282 11.2841 56.9282 11.8409V16H55.9225V11.9091C55.9225 11.3949 55.789 10.9943 55.522 10.7074C55.2549 10.4176 54.8884 10.2727 54.4225 10.2727C54.1015 10.2727 53.8146 10.3423 53.5617 10.4815C53.3117 10.6207 53.1143 10.8239 52.9694 11.0909C52.8245 11.358 52.7521 11.6818 52.7521 12.0625ZM61.5102 16.1364C60.8796 16.1364 60.3355 15.9972 59.8781 15.7188C59.4236 15.4375 59.0727 15.0455 58.8256 14.5426C58.5813 14.0369 58.4591 13.4489 58.4591 12.7784C58.4591 12.108 58.5813 11.517 58.8256 11.0057C59.0727 10.4915 59.4165 10.0909 59.8568 9.80398C60.3 9.5142 60.8171 9.36932 61.408 9.36932C61.7489 9.36932 62.0855 9.42614 62.4179 9.53977C62.7503 9.65341 63.0528 9.83807 63.3256 10.0938C63.5983 10.3466 63.8156 10.6818 63.9776 11.0994C64.1395 11.517 64.2205 12.0312 64.2205 12.642V13.0682H59.175V12.1989H63.1977C63.1977 11.8295 63.1239 11.5 62.9761 11.2102C62.8313 10.9205 62.6239 10.6918 62.354 10.5241C62.0869 10.3565 61.7716 10.2727 61.408 10.2727C61.0074 10.2727 60.6608 10.3722 60.3682 10.571C60.0784 10.767 59.8554 11.0227 59.6992 11.3381C59.5429 11.6534 59.4648 11.9915 59.4648 12.3523V12.9318C59.4648 13.4261 59.55 13.8452 59.7205 14.1889C59.8938 14.5298 60.1338 14.7898 60.4406 14.9688C60.7475 15.1449 61.104 15.233 61.5102 15.233C61.7744 15.233 62.0131 15.196 62.2261 15.1222C62.4421 15.0455 62.6281 14.9318 62.7844 14.7812C62.9406 14.6278 63.0614 14.4375 63.1466 14.2102L64.1182 14.483C64.0159 14.8125 63.844 15.1023 63.6026 15.3523C63.3611 15.5994 63.0628 15.7926 62.7077 15.9318C62.3526 16.0682 61.9534 16.1364 61.5102 16.1364ZM69.1253 16V9.45455H70.0969V10.4432H70.1651C70.2844 10.1193 70.5003 9.85653 70.8128 9.65483C71.1253 9.45312 71.4776 9.35227 71.8696 9.35227C71.9435 9.35227 72.0358 9.35369 72.1466 9.35653C72.2574 9.35937 72.3412 9.36364 72.398 9.36932V10.392C72.3639 10.3835 72.2858 10.3707 72.1636 10.3537C72.0443 10.3338 71.9179 10.3239 71.7844 10.3239C71.4662 10.3239 71.1821 10.3906 70.9321 10.5241C70.685 10.6548 70.4889 10.8366 70.344 11.0696C70.202 11.2997 70.131 11.5625 70.131 11.858V16H69.1253ZM76.1352 16.1364C75.5045 16.1364 74.9605 15.9972 74.5031 15.7188C74.0486 15.4375 73.6977 15.0455 73.4506 14.5426C73.2063 14.0369 73.0841 13.4489 73.0841 12.7784C73.0841 12.108 73.2063 11.517 73.4506 11.0057C73.6977 10.4915 74.0415 10.0909 74.4818 9.80398C74.925 9.5142 75.442 9.36932 76.033 9.36932C76.3739 9.36932 76.7105 9.42614 77.0429 9.53977C77.3753 9.65341 77.6778 9.83807 77.9506 10.0938C78.2233 10.3466 78.4406 10.6818 78.6026 11.0994C78.7645 11.517 78.8455 12.0312 78.8455 12.642V13.0682H73.8V12.1989H77.8227C77.8227 11.8295 77.7489 11.5 77.6011 11.2102C77.4563 10.9205 77.2489 10.6918 76.979 10.5241C76.7119 10.3565 76.3966 10.2727 76.033 10.2727C75.6324 10.2727 75.2858 10.3722 74.9932 10.571C74.7034 10.767 74.4804 11.0227 74.3242 11.3381C74.1679 11.6534 74.0898 11.9915 74.0898 12.3523V12.9318C74.0898 13.4261 74.175 13.8452 74.3455 14.1889C74.5188 14.5298 74.7588 14.7898 75.0656 14.9688C75.3724 15.1449 75.729 15.233 76.1352 15.233C76.3994 15.233 76.6381 15.196 76.8511 15.1222C77.0671 15.0455 77.2531 14.9318 77.4094 14.7812C77.5656 14.6278 77.6864 14.4375 77.7716 14.2102L78.7432 14.483C78.6409 14.8125 78.469 15.1023 78.2276 15.3523C77.9861 15.5994 77.6878 15.7926 77.3327 15.9318C76.9776 16.0682 76.5784 16.1364 76.1352 16.1364ZM85.5283 9.45455L83.1079 16H82.0852L79.6647 9.45455H80.7556L82.5624 14.6705H82.6306L84.4374 9.45455H85.5283ZM86.8558 16V9.45455H87.8614V16H86.8558ZM87.3671 8.36364C87.1711 8.36364 87.0021 8.29688 86.86 8.16335C86.7208 8.02983 86.6512 7.86932 86.6512 7.68182C86.6512 7.49432 86.7208 7.33381 86.86 7.20028C87.0021 7.06676 87.1711 7 87.3671 7C87.5631 7 87.7308 7.06676 87.87 7.20028C88.012 7.33381 88.083 7.49432 88.083 7.68182C88.083 7.86932 88.012 8.02983 87.87 8.16335C87.7308 8.29688 87.5631 8.36364 87.3671 8.36364ZM92.4477 16.1364C91.817 16.1364 91.273 15.9972 90.8156 15.7188C90.3611 15.4375 90.0102 15.0455 89.7631 14.5426C89.5188 14.0369 89.3966 13.4489 89.3966 12.7784C89.3966 12.108 89.5188 11.517 89.7631 11.0057C90.0102 10.4915 90.354 10.0909 90.7943 9.80398C91.2375 9.5142 91.7545 9.36932 92.3455 9.36932C92.6864 9.36932 93.023 9.42614 93.3554 9.53977C93.6878 9.65341 93.9903 9.83807 94.2631 10.0938C94.5358 10.3466 94.7531 10.6818 94.9151 11.0994C95.077 11.517 95.158 12.0312 95.158 12.642V13.0682H90.1125V12.1989H94.1352C94.1352 11.8295 94.0614 11.5 93.9136 11.2102C93.7688 10.9205 93.5614 10.6918 93.2915 10.5241C93.0244 10.3565 92.7091 10.2727 92.3455 10.2727C91.9449 10.2727 91.5983 10.3722 91.3057 10.571C91.0159 10.767 90.7929 11.0227 90.6367 11.3381C90.4804 11.6534 90.4023 11.9915 90.4023 12.3523V12.9318C90.4023 13.4261 90.4875 13.8452 90.658 14.1889C90.8313 14.5298 91.0713 14.7898 91.3781 14.9688C91.6849 15.1449 92.0415 15.233 92.4477 15.233C92.7119 15.233 92.9506 15.196 93.1636 15.1222C93.3796 15.0455 93.5656 14.9318 93.7219 14.7812C93.8781 14.6278 93.9989 14.4375 94.0841 14.2102L95.0557 14.483C94.9534 14.8125 94.7815 15.1023 94.5401 15.3523C94.2986 15.5994 94.0003 15.7926 93.6452 15.9318C93.2901 16.0682 92.8909 16.1364 92.4477 16.1364ZM98.1707 16L96.1764 9.45455H97.2332L98.648 14.4659H98.7162L100.114 9.45455H101.188L102.568 14.4489H102.637L104.051 9.45455H105.108L103.114 16H102.125L100.693 10.9716H100.591L99.1594 16H98.1707ZM108.959 16.1364C108.329 16.1364 107.785 15.9972 107.327 15.7188C106.873 15.4375 106.522 15.0455 106.275 14.5426C106.03 14.0369 105.908 13.4489 105.908 12.7784C105.908 12.108 106.03 11.517 106.275 11.0057C106.522 10.4915 106.866 10.0909 107.306 9.80398C107.749 9.5142 108.266 9.36932 108.857 9.36932C109.198 9.36932 109.535 9.42614 109.867 9.53977C110.2 9.65341 110.502 9.83807 110.775 10.0938C111.048 10.3466 111.265 10.6818 111.427 11.0994C111.589 11.517 111.67 12.0312 111.67 12.642V13.0682H106.624V12.1989H110.647C110.647 11.8295 110.573 11.5 110.425 11.2102C110.28 10.9205 110.073 10.6918 109.803 10.5241C109.536 10.3565 109.221 10.2727 108.857 10.2727C108.457 10.2727 108.11 10.3722 107.817 10.571C107.528 10.767 107.305 11.0227 107.148 11.3381C106.992 11.6534 106.914 11.9915 106.914 12.3523V12.9318C106.914 13.4261 106.999 13.8452 107.17 14.1889C107.343 14.5298 107.583 14.7898 107.89 14.9688C108.197 15.1449 108.553 15.233 108.959 15.233C109.224 15.233 109.462 15.196 109.675 15.1222C109.891 15.0455 110.077 14.9318 110.234 14.7812C110.39 14.6278 110.511 14.4375 110.596 14.2102L111.567 14.483C111.465 14.8125 111.293 15.1023 111.052 15.3523C110.81 15.5994 110.512 15.7926 110.157 15.9318C109.802 16.0682 109.403 16.1364 108.959 16.1364ZM115.671 16.1364C115.126 16.1364 114.644 15.9986 114.226 15.723C113.809 15.4446 113.482 15.0526 113.246 14.5469C113.011 14.0384 112.893 13.4375 112.893 12.7443C112.893 12.0568 113.011 11.4602 113.246 10.9545C113.482 10.4489 113.81 10.0582 114.231 9.78267C114.651 9.5071 115.137 9.36932 115.688 9.36932C116.114 9.36932 116.451 9.44034 116.698 9.58239C116.948 9.72159 117.138 9.88068 117.269 10.0597C117.403 10.2358 117.506 10.3807 117.58 10.4943H117.665V7.27273H118.671V16H117.7V14.9943H117.58C117.506 15.1136 117.401 15.2642 117.265 15.446C117.128 15.625 116.934 15.7855 116.681 15.9276C116.428 16.0668 116.092 16.1364 115.671 16.1364ZM115.807 15.233C116.211 15.233 116.552 15.1278 116.83 14.9176C117.109 14.7045 117.32 14.4105 117.465 14.0355C117.61 13.6577 117.682 13.2216 117.682 12.7273C117.682 12.2386 117.611 11.8111 117.469 11.4446C117.327 11.0753 117.117 10.7884 116.839 10.5838C116.56 10.3764 116.217 10.2727 115.807 10.2727C115.381 10.2727 115.026 10.3821 114.742 10.6009C114.461 10.8168 114.249 11.1108 114.107 11.483C113.968 11.8523 113.898 12.267 113.898 12.7273C113.898 13.1932 113.969 13.6165 114.111 13.9972C114.256 14.375 114.469 14.6761 114.751 14.9006C115.035 15.1222 115.387 15.233 115.807 15.233Z"
    fill="#26993F" />
  <path
    d="M134.793 5.33301H129.207C126.78 5.33301 125.333 6.77967 125.333 9.20634V14.7863C125.333 17.2197 126.78 18.6663 129.207 18.6663H134.787C137.213 18.6663 138.66 17.2197 138.66 14.793V9.20634C138.667 6.77967 137.22 5.33301 134.793 5.33301ZM135.187 10.4663L131.407 14.2463C131.313 14.3397 131.187 14.393 131.053 14.393C130.92 14.393 130.793 14.3397 130.7 14.2463L128.813 12.3597C128.62 12.1663 128.62 11.8463 128.813 11.653C129.007 11.4597 129.327 11.4597 129.52 11.653L131.053 13.1863L134.48 9.75967C134.673 9.56634 134.993 9.56634 135.187 9.75967C135.38 9.95301 135.38 10.2663 135.187 10.4663Z"
    fill="#26993F" />
</svg>