<svg width="16" height="16" viewBox="0 0 16 16" fill="none" xmlns="http://www.w3.org/2000/svg">
<path d="M10.8241 1.33203H5.17073C3.33073 1.33203 2.66406 1.9987 2.66406 3.87203V12.1254C2.66406 13.9987 3.33073 14.6654 5.17073 14.6654H10.8174C12.6641 14.6654 13.3307 13.9987 13.3307 12.1254V3.87203C13.3307 1.9987 12.6641 1.33203 10.8241 1.33203ZM7.9974 12.8654C7.3574 12.8654 6.83073 12.3387 6.83073 11.6987C6.83073 11.0587 7.3574 10.532 7.9974 10.532C8.6374 10.532 9.16406 11.0587 9.16406 11.6987C9.16406 12.3387 8.6374 12.8654 7.9974 12.8654ZM9.33073 4.16536H6.66406C6.39073 4.16536 6.16406 3.9387 6.16406 3.66536C6.16406 3.39203 6.39073 3.16536 6.66406 3.16536H9.33073C9.60406 3.16536 9.83073 3.39203 9.83073 3.66536C9.83073 3.9387 9.60406 4.16536 9.33073 4.16536Z" fill="#292D32"/>
</svg>
