<svg width="16" height="16" viewBox="0 0 16 16" fill="none" xmlns="http://www.w3.org/2000/svg">
<path d="M14.0974 4.11464C13.8241 3.96797 13.2507 3.81464 12.4707 4.3613L11.4907 5.05464C11.4174 2.9813 10.5174 2.16797 8.33073 2.16797H4.33073C2.05073 2.16797 1.16406 3.05464 1.16406 5.33464V10.668C1.16406 12.2013 1.9974 13.8346 4.33073 13.8346H8.33073C10.5174 13.8346 11.4174 13.0213 11.4907 10.948L12.4707 11.6413C12.8841 11.9346 13.2441 12.028 13.5307 12.028C13.7774 12.028 13.9707 11.9546 14.0974 11.888C14.3707 11.748 14.8307 11.368 14.8307 10.4146V5.58797C14.8307 4.63464 14.3707 4.25464 14.0974 4.11464ZM7.33073 7.58797C6.64406 7.58797 6.0774 7.02797 6.0774 6.33464C6.0774 5.6413 6.64406 5.0813 7.33073 5.0813C8.0174 5.0813 8.58406 5.6413 8.58406 6.33464C8.58406 7.02797 8.0174 7.58797 7.33073 7.58797Z" fill="#292D32"/>
</svg>
