<svg width="20" height="20" viewBox="0 0 20 20" fill="none" xmlns="http://www.w3.org/2000/svg">
<path d="M9.60003 1.66675C5.24668 1.66675 1.69922 5.40841 1.69922 10.0001C1.69922 14.5917 5.24668 18.3334 9.60003 18.3334C13.9534 18.3334 17.5008 14.5917 17.5008 10.0001C17.5008 5.40841 13.9534 1.66675 9.60003 1.66675ZM13.0369 12.9751C12.9263 13.1751 12.7287 13.2834 12.5233 13.2834C12.4206 13.2834 12.3179 13.2584 12.2231 13.1917L9.77384 11.6501C9.16548 11.2667 8.71514 10.4251 8.71514 9.68341V6.26675C8.71514 5.92508 8.98376 5.64175 9.3077 5.64175C9.63163 5.64175 9.90026 5.92508 9.90026 6.26675V9.68341C9.90026 9.98341 10.1373 10.4251 10.3822 10.5751L12.8315 12.1167C13.1159 12.2917 13.2107 12.6751 13.0369 12.9751Z" fill="#2F3454"/>
</svg>
