<svg width="20" height="20" viewBox="0 0 20 20" fill="none" xmlns="http://www.w3.org/2000/svg">
<path d="M10.625 13.2666H11.1667C11.7083 13.2666 12.1583 12.7833 12.1583 12.1999C12.1583 11.4749 11.9 11.3333 11.475 11.1833L10.6333 10.8916V13.2666H10.625Z" fill="#2F3454"/>
<path d="M9.97441 1.58327C5.3744 1.59993 1.6494 5.3416 1.66607 9.9416C1.68274 14.5416 5.4244 18.2666 10.0244 18.2499C14.6244 18.2333 18.3494 14.4916 18.3327 9.8916C18.3161 5.2916 14.5744 1.57493 9.97441 1.58327ZM11.8827 9.99993C12.5327 10.2249 13.4077 10.7083 13.4077 12.1999C13.4077 13.4833 12.3994 14.5166 11.1661 14.5166H10.6244V14.9999C10.6244 15.3416 10.3411 15.6249 9.9994 15.6249C9.65774 15.6249 9.3744 15.3416 9.3744 14.9999V14.5166H9.07441C7.70774 14.5166 6.5994 13.3666 6.5994 11.9499C6.5994 11.6083 6.88274 11.3249 7.2244 11.3249C7.56607 11.3249 7.8494 11.6083 7.8494 11.9499C7.8494 12.6749 8.39941 13.2666 9.07441 13.2666H9.3744V10.4499L8.11607 9.99993C7.46607 9.77493 6.59107 9.2916 6.59107 7.79993C6.59107 6.5166 7.59941 5.48327 8.83274 5.48327H9.3744V4.99993C9.3744 4.65827 9.65774 4.37493 9.9994 4.37493C10.3411 4.37493 10.6244 4.65827 10.6244 4.99993V5.48327H10.9244C12.2911 5.48327 13.3994 6.63327 13.3994 8.04993C13.3994 8.3916 13.1161 8.67493 12.7744 8.67493C12.4327 8.67493 12.1494 8.3916 12.1494 8.04993C12.1494 7.32493 11.5994 6.73327 10.9244 6.73327H10.6244V9.54993L11.8827 9.99993Z" fill="#2F3454"/>
<path d="M7.84961 7.8084C7.84961 8.5334 8.10794 8.67507 8.53294 8.82507L9.37461 9.11673V6.7334H8.83294C8.29128 6.7334 7.84961 7.21673 7.84961 7.8084Z" fill="#2F3454"/>
</svg>
