<svg width="33" height="33" viewBox="0 0 33 33" fill="none" xmlns="http://www.w3.org/2000/svg">
<path d="M17.1179 6.85918L18.7745 10.2704C19.0014 10.7386 19.6051 11.1977 20.1159 11.2757L23.1542 11.78C25.0997 12.0987 25.537 13.5317 24.1343 14.9639L21.7452 17.3896C21.3463 17.7962 21.1113 18.5913 21.2373 19.1476L21.8915 22.1318C22.4056 24.4878 21.1701 25.4107 19.1346 24.1875L16.2912 22.4785C15.7734 22.1661 14.9267 22.1774 14.4114 22.4876L11.5445 24.2166C9.49226 25.4523 8.26723 24.5435 8.81713 22.1845L9.51961 19.1993C9.65079 18.6413 9.43794 17.8479 9.04327 17.4469L6.67528 15.0408C5.29382 13.6259 5.7521 12.1894 7.69911 11.8494L10.7391 11.3206C11.2524 11.2271 11.8636 10.7748 12.0932 10.3002L13.8016 6.86674C14.7341 5.01732 16.2237 5.01308 17.1179 6.85918Z" fill="#E8D97E"/>
</svg>
