<svg width="22" height="22" viewBox="0 0 22 22" fill="none" xmlns="http://www.w3.org/2000/svg">
<path d="M11.4119 4.57271L12.5163 6.84682C12.6676 7.15896 13.0701 7.46506 13.4106 7.51702L15.4361 7.85327C16.7331 8.06569 17.0247 9.02105 16.0895 9.97582L14.4968 11.593C14.2308 11.864 14.0742 12.3941 14.1582 12.765L14.5943 14.7544C14.9371 16.3251 14.1134 16.9404 12.7564 16.1249L10.8608 14.9856C10.5156 14.7773 9.95112 14.7849 9.60761 14.9916L7.69632 16.1443C6.32817 16.9681 5.51148 16.3622 5.87808 14.7896L6.34641 12.7994C6.43386 12.4274 6.29196 11.8985 6.02885 11.6312L4.45018 10.0271C3.52921 9.08386 3.83473 8.12617 5.13274 7.89949L7.15941 7.54701C7.50159 7.48465 7.90906 7.18314 8.06216 6.86669L9.20105 4.57774C9.82271 3.3448 10.8158 3.34197 11.4119 4.57271Z" fill="#FF5757"/>
</svg>
