<svg width="18" height="18" viewBox="0 0 18 18" fill="none" xmlns="http://www.w3.org/2000/svg">
<path d="M9.00008 0.666656C4.40008 0.666656 0.666748 4.39999 0.666748 8.99999C0.666748 13.6 4.40008 17.3333 9.00008 17.3333C13.6001 17.3333 17.3334 13.6 17.3334 8.99999C17.3334 4.39999 13.6001 0.666656 9.00008 0.666656ZM5.31674 12.6833C5.5584 12.925 5.5584 13.325 5.31674 13.5667C5.19174 13.6917 5.0334 13.75 4.87507 13.75C4.71674 13.75 4.55841 13.6917 4.43341 13.5667C3.21674 12.35 2.54175 10.725 2.54175 8.99999C2.54175 7.27499 3.21674 5.64999 4.43341 4.43332C4.67507 4.19165 5.07507 4.19165 5.31674 4.43332C5.5584 4.67499 5.5584 5.07499 5.31674 5.31666C4.3334 6.29999 3.79175 7.60832 3.79175 8.99999C3.79175 10.3917 4.3334 11.7 5.31674 12.6833ZM10.3751 8.81666C11.1751 9.09999 11.5667 9.65832 11.5667 10.5333C11.5667 11.5333 10.7834 12.3417 9.80842 12.3417H9.61674V12.4917C9.61674 12.8333 9.33341 13.1167 8.99174 13.1167C8.65007 13.1167 8.36674 12.8333 8.36674 12.4917V12.3417H8.34174C7.28341 12.3417 6.41674 11.45 6.41674 10.3583C6.41674 10.0167 6.70008 9.73332 7.04174 9.73332C7.38341 9.73332 7.66674 10.0167 7.66674 10.3583C7.66674 10.7667 7.96674 11.0917 8.34174 11.0917H8.36674V9.44166L7.61674 9.17499C6.81675 8.89166 6.42508 8.33332 6.42508 7.45832C6.42508 6.45832 7.20841 5.64999 8.18341 5.64999H8.37508V5.49999C8.37508 5.15833 8.65841 4.87499 9.00008 4.87499C9.34175 4.87499 9.62508 5.15833 9.62508 5.49999V5.64999H9.65008C10.7084 5.64999 11.5751 6.54166 11.5751 7.63332C11.5751 7.97499 11.2917 8.25832 10.9501 8.25832C10.6084 8.25832 10.3251 7.97499 10.3251 7.63332C10.3251 7.22499 10.0251 6.89999 9.65008 6.89999H9.62508V8.54999L10.3751 8.81666ZM13.5668 13.5667C13.4418 13.6917 13.2834 13.75 13.1251 13.75C12.9668 13.75 12.8084 13.6917 12.6834 13.5667C12.4418 13.325 12.4418 12.925 12.6834 12.6833C13.6668 11.7 14.2084 10.3917 14.2084 8.99999C14.2084 7.60832 13.6668 6.29999 12.6834 5.31666C12.4418 5.07499 12.4418 4.67499 12.6834 4.43332C12.9251 4.19165 13.3251 4.19165 13.5668 4.43332C14.7834 5.64999 15.4584 7.27499 15.4584 8.99999C15.4584 10.725 14.7834 12.35 13.5668 13.5667Z" fill="url(#paint0_linear_1586_5004)"/>
<defs>
<linearGradient id="paint0_linear_1586_5004" x1="5.18064" y1="-1.06945" x2="13.1667" y2="18.375" gradientUnits="userSpaceOnUse">
<stop stop-color="#4A4AB0"/>
<stop offset="0.145833" stop-color="#6363D0"/>
<stop offset="0.364583" stop-color="#8989FF"/>
<stop offset="0.557292" stop-color="#998DEC"/>
<stop offset="0.833333" stop-color="#D89D9F"/>
<stop offset="0.9998" stop-color="#F1A382"/>
<stop offset="0.9999" stop-color="#FFA771"/>
<stop offset="1" stop-color="#F8F8F8"/>
</linearGradient>
</defs>
</svg>
