<svg width="28" height="28" viewBox="0 0 28 28" fill="none" xmlns="http://www.w3.org/2000/svg">
<path d="M14 12.6667C13.6463 12.6667 13.3072 12.8072 13.0572 13.0572C12.8071 13.3073 12.6666 13.6464 12.6666 14V19.3334C12.6666 19.687 12.8071 20.0261 13.0572 20.2762C13.3072 20.5262 13.6463 20.6667 14 20.6667C14.3536 20.6667 14.6927 20.5262 14.9428 20.2762C15.1928 20.0261 15.3333 19.687 15.3333 19.3334V14C15.3333 13.6464 15.1928 13.3073 14.9428 13.0572C14.6927 12.8072 14.3536 12.6667 14 12.6667ZM14.5066 7.44002C14.182 7.30666 13.8179 7.30666 13.4933 7.44002C13.3296 7.50348 13.1801 7.59863 13.0533 7.72002C12.9355 7.84962 12.8408 7.99844 12.7733 8.16002C12.6987 8.31826 12.6621 8.49179 12.6666 8.66669C12.6656 8.84216 12.6993 9.01611 12.7656 9.17856C12.832 9.34101 12.9297 9.48877 13.0533 9.61335C13.1829 9.73113 13.3317 9.82583 13.4933 9.89335C13.6953 9.97634 13.9146 10.0084 14.1319 9.98684C14.3492 9.96523 14.5579 9.89058 14.7396 9.76945C14.9213 9.64831 15.0705 9.4844 15.174 9.29212C15.2775 9.09983 15.3322 8.88507 15.3333 8.66669C15.3284 8.31366 15.1903 7.97553 14.9466 7.72002C14.8198 7.59863 14.6703 7.50348 14.5066 7.44002ZM14 0.666687C11.3629 0.666687 8.78502 1.44867 6.59236 2.91376C4.39971 4.37884 2.69074 6.46123 1.68157 8.89757C0.672403 11.3339 0.408359 14.0148 0.922828 16.6012C1.4373 19.1876 2.70717 21.5634 4.57188 23.4281C6.43658 25.2928 8.81235 26.5627 11.3988 27.0772C13.9852 27.5916 16.6661 27.3276 19.1024 26.3184C21.5388 25.3092 23.6211 23.6003 25.0862 21.4076C26.5513 19.215 27.3333 16.6371 27.3333 14C27.3333 12.2491 26.9884 10.5152 26.3184 8.89757C25.6483 7.2799 24.6662 5.81004 23.4281 4.57193C22.1899 3.33382 20.7201 2.35169 19.1024 1.68163C17.4847 1.01156 15.7509 0.666687 14 0.666687ZM14 24.6667C11.8903 24.6667 9.82801 24.0411 8.07388 22.869C6.31976 21.697 4.95259 20.0311 4.14525 18.082C3.33792 16.1329 3.12668 13.9882 3.53826 11.9191C3.94983 9.84993 4.96573 7.94931 6.45749 6.45755C7.94925 4.96579 9.84987 3.94989 11.919 3.53831C13.9881 3.12674 16.1328 3.33797 18.0819 4.14531C20.031 4.95264 21.6969 6.31981 22.869 8.07394C24.041 9.82806 24.6666 11.8904 24.6666 14C24.6666 16.829 23.5428 19.5421 21.5424 21.5425C19.5421 23.5429 16.8289 24.6667 14 24.6667Z" fill="#FF914D"/>
</svg>
