<svg width="68" height="68" viewBox="0 0 68 68" fill="none" xmlns="http://www.w3.org/2000/svg">
<circle cx="34" cy="34" r="34" fill="white"/>
<path d="M54 46.0417V51.4167H14V46.0417C14 45.0563 14.9 44.25 16 44.25H52C53.1 44.25 54 45.0563 54 46.0417Z" fill="#2F3454" stroke="#2F3454" stroke-width="1.5" stroke-miterlimit="10" stroke-linecap="round" stroke-linejoin="round"/>
<path d="M24 31.707H20V44.2487H24V31.707Z" fill="#2F3454"/>
<path d="M32 31.707H28V44.2487H32V31.707Z" fill="#2F3454"/>
<path d="M40 31.707H36V44.2487H40V31.707Z" fill="#2F3454"/>
<path d="M48 31.707H44V44.2487H48V31.707Z" fill="#2F3454"/>
<path d="M56 52.7617H12C11.18 52.7617 10.5 52.1526 10.5 51.418C10.5 50.6834 11.18 50.0742 12 50.0742H56C56.82 50.0742 57.5 50.6834 57.5 51.418C57.5 52.1526 56.82 52.7617 56 52.7617Z" fill="#2F3454"/>
<path d="M52.74 22.3036L34.74 15.8536C34.34 15.7103 33.66 15.7103 33.26 15.8536L15.26 22.3036C14.56 22.5544 14 23.289 14 23.9698V29.9182C14 30.9036 14.9 31.7098 16 31.7098H52C53.1 31.7098 54 30.9036 54 29.9182V23.9698C54 23.289 53.44 22.5544 52.74 22.3036ZM34 27.2307C32.34 27.2307 31 26.0303 31 24.5432C31 23.0561 32.34 21.8557 34 21.8557C35.66 21.8557 37 23.0561 37 24.5432C37 26.0303 35.66 27.2307 34 27.2307Z" fill="#2F3454"/>
</svg>
