<svg width="68" height="68" viewBox="0 0 68 68" fill="none" xmlns="http://www.w3.org/2000/svg">
<circle cx="34" cy="34" r="34" fill="white"/>
<path d="M31.3154 18.7812C31.3154 19.1375 31.0087 19.4375 30.6445 19.4375H28.4787C24.3387 19.4375 20.9654 22.7375 20.9654 26.7875V44.0938C20.9654 44.45 20.6587 44.75 20.2945 44.75H18.9529C16.672 44.75 14.832 42.95 14.832 40.7188V18.7812C14.832 16.55 16.672 14.75 18.9529 14.75H27.1945C29.4754 14.75 31.3154 16.55 31.3154 18.7812Z" fill="#2F3454"/>
<path d="M53.1669 18.7812V40.7188C53.1669 42.95 51.3269 44.75 49.0461 44.75H47.8386C47.4744 44.75 47.1678 44.45 47.1678 44.0938V26.7875C47.1678 22.7375 43.7944 19.4375 39.6544 19.4375H37.3544C36.9903 19.4375 36.6836 19.1375 36.6836 18.7812C36.6836 16.55 38.5236 14.75 40.8044 14.75H49.0461C51.3269 14.75 53.1669 16.55 53.1669 18.7812Z" fill="#2F3454"/>
<path d="M39.6523 22.25H28.4782C25.9098 22.25 23.8398 24.275 23.8398 26.7875V47.7125C23.8398 50.225 25.9098 52.25 28.4782 52.25H31.6023C32.139 52.25 32.5607 51.8375 32.5607 51.3125V46.625C32.5607 45.8563 33.2123 45.2188 33.9982 45.2188C34.784 45.2188 35.4357 45.8563 35.4357 46.625V51.3125C35.4357 51.8375 35.8573 52.25 36.394 52.25H39.6715C42.2207 52.25 44.2907 50.225 44.2907 47.7313V26.7875C44.2907 24.275 42.2207 22.25 39.6523 22.25ZM37.8315 38.6562H30.1648C29.379 38.6562 28.7273 38.0188 28.7273 37.25C28.7273 36.4812 29.379 35.8438 30.1648 35.8438H37.8315C38.6173 35.8438 39.269 36.4812 39.269 37.25C39.269 38.0188 38.6173 38.6562 37.8315 38.6562ZM37.8315 33.0312H30.1648C29.379 33.0312 28.7273 32.3938 28.7273 31.625C28.7273 30.8562 29.379 30.2188 30.1648 30.2188H37.8315C38.6173 30.2188 39.269 30.8562 39.269 31.625C39.269 32.3938 38.6173 33.0312 37.8315 33.0312Z" fill="#2F3454"/>
</svg>
