<svg width="16" height="17" viewBox="0 0 16 17" fill="none" xmlns="http://www.w3.org/2000/svg">
<path d="M11.1667 2.68258V1.64258C11.1667 1.36924 10.94 1.14258 10.6667 1.14258C10.3933 1.14258 10.1667 1.36924 10.1667 1.64258V2.64258H5.83332V1.64258C5.83332 1.36924 5.60666 1.14258 5.33332 1.14258C5.05999 1.14258 4.83332 1.36924 4.83332 1.64258V2.68258C3.03332 2.84924 2.15999 3.92258 2.02666 5.51591C2.01332 5.70924 2.17332 5.86925 2.35999 5.86925H13.64C13.8333 5.86925 13.9933 5.70258 13.9733 5.51591C13.84 3.92258 12.9667 2.84924 11.1667 2.68258Z" fill="#2F3454"/>
<path d="M13.3333 6.86938H2.66667C2.3 6.86938 2 7.16938 2 7.53605V11.6427C2 13.6427 3 14.9761 5.33333 14.9761H10.6667C13 14.9761 14 13.6427 14 11.6427V7.53605C14 7.16938 13.7 6.86938 13.3333 6.86938ZM6.14 12.4494C6.10667 12.4761 6.07333 12.5094 6.04 12.5294C6 12.5561 5.96 12.5761 5.92 12.5894C5.88 12.6094 5.84 12.6227 5.8 12.6294C5.75333 12.6361 5.71333 12.6427 5.66667 12.6427C5.58 12.6427 5.49333 12.6227 5.41333 12.5894C5.32667 12.5561 5.26 12.5094 5.19333 12.4494C5.07333 12.3227 5 12.1494 5 11.9761C5 11.8027 5.07333 11.6294 5.19333 11.5027C5.26 11.4427 5.32667 11.3961 5.41333 11.3627C5.53333 11.3094 5.66667 11.2961 5.8 11.3227C5.84 11.3294 5.88 11.3427 5.92 11.3627C5.96 11.3761 6 11.3961 6.04 11.4227C6.07333 11.4494 6.10667 11.4761 6.14 11.5027C6.26 11.6294 6.33333 11.8027 6.33333 11.9761C6.33333 12.1494 6.26 12.3227 6.14 12.4494ZM6.14 10.1161C6.01333 10.2361 5.84 10.3094 5.66667 10.3094C5.49333 10.3094 5.32 10.2361 5.19333 10.1161C5.07333 9.98938 5 9.81605 5 9.64272C5 9.46938 5.07333 9.29605 5.19333 9.16938C5.38 8.98272 5.67333 8.92272 5.92 9.02938C6.00667 9.06272 6.08 9.10938 6.14 9.16938C6.26 9.29605 6.33333 9.46938 6.33333 9.64272C6.33333 9.81605 6.26 9.98938 6.14 10.1161ZM8.47333 12.4494C8.34667 12.5694 8.17333 12.6427 8 12.6427C7.82667 12.6427 7.65333 12.5694 7.52667 12.4494C7.40667 12.3227 7.33333 12.1494 7.33333 11.9761C7.33333 11.8027 7.40667 11.6294 7.52667 11.5027C7.77333 11.2561 8.22667 11.2561 8.47333 11.5027C8.59333 11.6294 8.66667 11.8027 8.66667 11.9761C8.66667 12.1494 8.59333 12.3227 8.47333 12.4494ZM8.47333 10.1161C8.44 10.1427 8.40667 10.1694 8.37333 10.1961C8.33333 10.2227 8.29333 10.2427 8.25333 10.2561C8.21333 10.2761 8.17333 10.2894 8.13333 10.2961C8.08667 10.3027 8.04667 10.3094 8 10.3094C7.82667 10.3094 7.65333 10.2361 7.52667 10.1161C7.40667 9.98938 7.33333 9.81605 7.33333 9.64272C7.33333 9.46938 7.40667 9.29605 7.52667 9.16938C7.58667 9.10938 7.66 9.06272 7.74667 9.02938C7.99333 8.92272 8.28667 8.98272 8.47333 9.16938C8.59333 9.29605 8.66667 9.46938 8.66667 9.64272C8.66667 9.81605 8.59333 9.98938 8.47333 10.1161ZM10.8067 12.4494C10.68 12.5694 10.5067 12.6427 10.3333 12.6427C10.16 12.6427 9.98667 12.5694 9.86 12.4494C9.74 12.3227 9.66667 12.1494 9.66667 11.9761C9.66667 11.8027 9.74 11.6294 9.86 11.5027C10.1067 11.2561 10.56 11.2561 10.8067 11.5027C10.9267 11.6294 11 11.8027 11 11.9761C11 12.1494 10.9267 12.3227 10.8067 12.4494ZM10.8067 10.1161C10.7733 10.1427 10.74 10.1694 10.7067 10.1961C10.6667 10.2227 10.6267 10.2427 10.5867 10.2561C10.5467 10.2761 10.5067 10.2894 10.4667 10.2961C10.42 10.3027 10.3733 10.3094 10.3333 10.3094C10.16 10.3094 9.98667 10.2361 9.86 10.1161C9.74 9.98938 9.66667 9.81605 9.66667 9.64272C9.66667 9.46938 9.74 9.29605 9.86 9.16938C9.92667 9.10938 9.99333 9.06272 10.08 9.02938C10.2 8.97605 10.3333 8.96272 10.4667 8.98939C10.5067 8.99605 10.5467 9.00938 10.5867 9.02938C10.6267 9.04272 10.6667 9.06272 10.7067 9.08938C10.74 9.11605 10.7733 9.14272 10.8067 9.16938C10.9267 9.29605 11 9.46938 11 9.64272C11 9.81605 10.9267 9.98938 10.8067 10.1161Z" fill="#2F3454"/>
</svg>
