<svg width="16" height="17" viewBox="0 0 16 17" fill="none" xmlns="http://www.w3.org/2000/svg">
<path d="M8.00004 1.64258C6.25337 1.64258 4.83337 3.06258 4.83337 4.80924C4.83337 6.52258 6.17337 7.90924 7.92004 7.96924C7.97337 7.96258 8.02671 7.96258 8.06671 7.96924C8.08004 7.96924 8.08671 7.96924 8.10004 7.96924C8.10671 7.96924 8.10671 7.96924 8.11337 7.96924C9.82004 7.90924 11.16 6.52258 11.1667 4.80924C11.1667 3.06258 9.74671 1.64258 8.00004 1.64258Z" fill="#2F3454"/>
<path d="M11.3866 9.74274C9.52664 8.50274 6.49331 8.50274 4.61997 9.74274C3.77331 10.3094 3.30664 11.0761 3.30664 11.8961C3.30664 12.7161 3.77331 13.4761 4.61331 14.0361C5.54664 14.6627 6.77331 14.9761 7.99997 14.9761C9.22664 14.9761 10.4533 14.6627 11.3866 14.0361C12.2266 13.4694 12.6933 12.7094 12.6933 11.8827C12.6866 11.0627 12.2266 10.3027 11.3866 9.74274Z" fill="#2F3454"/>
</svg>
