<svg width="26" height="25" viewBox="0 0 26 25" fill="none" xmlns="http://www.w3.org/2000/svg">
<path d="M13 0.417969C6.1125 0.417969 0.5 5.84338 0.5 12.5013C0.5 19.1592 6.1125 24.5846 13 24.5846C19.8875 24.5846 25.5 19.1592 25.5 12.5013C25.5 5.84338 19.8875 0.417969 13 0.417969ZM17.2 15.2805C17.5625 15.6309 17.5625 16.2109 17.2 16.5613C17.0125 16.7425 16.775 16.8271 16.5375 16.8271C16.3 16.8271 16.0625 16.7425 15.875 16.5613L13 13.7821L10.125 16.5613C9.9375 16.7425 9.7 16.8271 9.4625 16.8271C9.225 16.8271 8.9875 16.7425 8.8 16.5613C8.4375 16.2109 8.4375 15.6309 8.8 15.2805L11.675 12.5013L8.8 9.72213C8.4375 9.37172 8.4375 8.79172 8.8 8.4413C9.1625 8.09089 9.7625 8.09089 10.125 8.4413L13 11.2205L15.875 8.4413C16.2375 8.09089 16.8375 8.09089 17.2 8.4413C17.5625 8.79172 17.5625 9.37172 17.2 9.72213L14.325 12.5013L17.2 15.2805Z" fill="#2F3454"/>
</svg>
