<svg width="32" height="32" viewBox="0 0 32 32" fill="none" xmlns="http://www.w3.org/2000/svg">
<rect width="32" height="32" rx="4" fill="#F4F4F4"/>
<path d="M23.7887 8.22031C20.8287 5.27031 16.0287 5.27031 13.0887 8.22031C11.0187 10.2703 10.3987 13.2203 11.1987 15.8203L6.49868 20.5203C6.16868 20.8603 5.93868 21.5303 6.00868 22.0103L6.30868 24.1903C6.41868 24.9103 7.08868 25.5903 7.80868 25.6903L9.98868 25.9903C10.4687 26.0603 11.1387 25.8403 11.4787 25.4903L12.2987 24.6703C12.4987 24.4803 12.4987 24.1603 12.2987 23.9603L10.3587 22.0203C10.0687 21.7303 10.0687 21.2503 10.3587 20.9603C10.6487 20.6703 11.1287 20.6703 11.4187 20.9603L13.3687 22.9103C13.5587 23.1003 13.8787 23.1003 14.0687 22.9103L16.1887 20.8003C18.7787 21.6103 21.7287 20.9803 23.7887 18.9303C26.7387 15.9803 26.7387 11.1703 23.7887 8.22031ZM18.4987 16.0003C17.1187 16.0003 15.9987 14.8803 15.9987 13.5003C15.9987 12.1203 17.1187 11.0003 18.4987 11.0003C19.8787 11.0003 20.9987 12.1203 20.9987 13.5003C20.9987 14.8803 19.8787 16.0003 18.4987 16.0003Z" fill="#2F3454"/>
</svg>
